M48
;DRILL file {kicad (2015-01-16 BZR 5376)-product} date 3/19/2015 6:58:46 PM
;FORMAT={-:-/ absolute / metric / decimal}
FMAT,2
METRIC,TZ
T1C0.356
T2C0.610
T3C1.020
%
G90
G05
M71
T1
X14.6Y-6.9
X15.5Y-8.
X25.Y-25.9
X26.5Y-8.5
X27.3Y-18.8
X27.5Y-16.5
X27.7Y-9.4
X28.6Y-18.6
X29.9Y-18.8
X31.2Y-18.7
X32.4Y-16.5
X34.1Y-10.4
X34.901Y-8.5
X35.8Y-16.8
X36.001Y-9.4
X37.4Y-7.7
X38.6Y-27.5
X39.9Y-19.
X41.2Y-16.8
X41.9Y-7.7
X43.101Y-8.5
X44.101Y-9.4
X45.Y-10.4
X50.1Y-7.6
X51.35Y-9.4
X52.65Y-8.5
T2
X8.3Y-11.7
X8.8Y-8.7
X16.Y-21.
X16.Y-29.8
X16.Y-44.9
X17.46Y-32.46
X17.5Y-22.7
X17.5Y-47.4
X19.Y-35.
X19.Y-50.
X19.2Y-24.4
X22.3Y-10.9
T3
X8.19Y-2.25
X8.19Y-4.79
X10.Y-14.92
X10.Y-17.46
X10.Y-20.
X10.Y-29.92
X10.Y-32.46
X10.Y-35.
X10.Y-44.92
X10.Y-47.46
X10.Y-50.
X10.73Y-2.25
X10.73Y-4.79
X13.27Y-2.25
X13.27Y-4.79
X15.81Y-2.25
X15.81Y-4.79
X18.35Y-2.25
X18.35Y-4.79
X20.89Y-2.25
X20.89Y-4.79
X23.43Y-2.25
X23.43Y-4.79
X25.97Y-2.25
X25.97Y-4.79
X28.51Y-2.25
X28.51Y-4.79
X31.05Y-2.25
X31.05Y-4.79
X33.59Y-2.25
X33.59Y-4.79
X36.13Y-2.25
X36.13Y-4.79
X38.67Y-2.25
X38.67Y-4.79
X41.21Y-2.25
X41.21Y-4.79
X43.75Y-2.25
X43.75Y-4.79
X46.29Y-2.25
X46.29Y-4.79
X48.83Y-2.25
X48.83Y-4.79
X51.37Y-2.25
X51.37Y-4.79
X53.91Y-2.25
X53.91Y-4.79
X54.75Y-14.8
X54.75Y-17.34
X54.75Y-19.88
X54.75Y-29.8
X54.75Y-32.34
X54.75Y-34.88
X54.75Y-44.8
X54.75Y-47.34
X54.75Y-49.88
X56.45Y-2.25
X56.45Y-4.79
T0
M30
