G04 #@! TF.FileFunction,Legend,Bot*
%FSLAX45Y45*%
G04 Gerber Fmt 4.5, Leading zero omitted, Abs format (unit mm)*
G04 Created by KiCad (PCBNEW (2015-01-16 BZR 5376)-product) date 3/19/2015 6:58:58 PM*
%MOMM*%
G01*
G04 APERTURE LIST*
%ADD10C,0.100000*%
%ADD11C,0.200000*%
%ADD12C,0.150000*%
%ADD13C,1.927000*%
%ADD14R,1.927000X1.927000*%
G04 APERTURE END LIST*
D10*
X742800Y-631400D02*
X895200Y-631400D01*
D11*
X5772000Y-606000D02*
X5772000Y-98000D01*
X5772000Y-98000D02*
X692000Y-98000D01*
X692000Y-98000D02*
X692000Y-606000D01*
X692000Y-606000D02*
X5772000Y-606000D01*
D12*
X853333Y-655238D02*
X853333Y-726667D01*
X858095Y-740952D01*
X867619Y-750476D01*
X881905Y-755238D01*
X891429Y-755238D01*
X753333Y-755238D02*
X810476Y-755238D01*
X781905Y-755238D02*
X781905Y-655238D01*
X791429Y-669524D01*
X800952Y-679048D01*
X810476Y-683810D01*
%LPC*%
D13*
X1000000Y-4492000D03*
X1000000Y-4746000D03*
D14*
X1000000Y-5000000D03*
D13*
X5475000Y-4988000D03*
X5475000Y-4734000D03*
D14*
X5475000Y-4480000D03*
D13*
X5475000Y-3488000D03*
X5475000Y-3234000D03*
D14*
X5475000Y-2980000D03*
D13*
X5475000Y-1988000D03*
X5475000Y-1734000D03*
D14*
X5475000Y-1480000D03*
D13*
X3867000Y-225000D03*
X819000Y-225000D03*
X1327000Y-225000D03*
X1073000Y-225000D03*
X1581000Y-225000D03*
X1835000Y-225000D03*
X2343000Y-225000D03*
X2089000Y-225000D03*
X2597000Y-225000D03*
X2851000Y-225000D03*
X5645000Y-225000D03*
X5391000Y-225000D03*
X4883000Y-225000D03*
X5137000Y-225000D03*
X4629000Y-225000D03*
X4375000Y-225000D03*
X3613000Y-225000D03*
X4121000Y-225000D03*
X3359000Y-225000D03*
X3105000Y-225000D03*
X2851000Y-479000D03*
X3105000Y-479000D03*
X3613000Y-479000D03*
X3359000Y-479000D03*
X3867000Y-479000D03*
X4121000Y-479000D03*
X4629000Y-479000D03*
X4375000Y-479000D03*
X5391000Y-479000D03*
X5645000Y-479000D03*
X5137000Y-479000D03*
X2597000Y-479000D03*
X2343000Y-479000D03*
X4883000Y-479000D03*
X2089000Y-479000D03*
X1835000Y-479000D03*
X1327000Y-479000D03*
X1581000Y-479000D03*
X1073000Y-479000D03*
D14*
X819000Y-479000D03*
D13*
X1000000Y-2992000D03*
X1000000Y-3246000D03*
D14*
X1000000Y-3500000D03*
D13*
X1000000Y-1492000D03*
X1000000Y-1746000D03*
D14*
X1000000Y-2000000D03*
M02*
