G04 #@! TF.FileFunction,Legend,Top*
%FSLAX45Y45*%
G04 Gerber Fmt 4.5, Leading zero omitted, Abs format (unit mm)*
G04 Created by KiCad (PCBNEW (2015-01-16 BZR 5376)-product) date 3/19/2015 6:58:58 PM*
%MOMM*%
G01*
G04 APERTURE LIST*
%ADD10C,0.100000*%
%ADD11C,0.150000*%
%ADD12C,0.200000*%
%ADD13R,1.127000X1.377000*%
%ADD14R,2.627000X1.127000*%
%ADD15R,1.377000X1.127000*%
%ADD16R,1.427000X0.827000*%
%ADD17R,1.727000X0.427000*%
%ADD18R,0.727000X1.677000*%
%ADD19C,1.927000*%
%ADD20R,1.927000X1.927000*%
G04 APERTURE END LIST*
D10*
D11*
X500000Y-965000D02*
X600000Y-965000D01*
X600000Y-795000D02*
X500000Y-795000D01*
X2587500Y-1450000D02*
X2587500Y-1250000D01*
X2292500Y-1250000D02*
X2292500Y-1450000D01*
X2265000Y-2440000D02*
X2265000Y-2540000D01*
X2435000Y-2540000D02*
X2435000Y-2440000D01*
X3810000Y-1845000D02*
X3910000Y-1845000D01*
X3910000Y-1675000D02*
X3810000Y-1675000D01*
X1870000Y-1145000D02*
X1970000Y-1145000D01*
X1970000Y-975000D02*
X1870000Y-975000D01*
X2132604Y-1899956D02*
X2132604Y-1779956D01*
X2307604Y-1779956D02*
X2307604Y-1899956D01*
X1862604Y-1899956D02*
X1862604Y-1779956D01*
X2037604Y-1779956D02*
X2037604Y-1899956D01*
X1572604Y-1899956D02*
X1572604Y-1779956D01*
X1747604Y-1779956D02*
X1747604Y-1899956D01*
D10*
X3665104Y-1274956D02*
X3665104Y-1309956D01*
D12*
X4070104Y-1534956D02*
X3790104Y-1534956D01*
X4070104Y-1244956D02*
X3790104Y-1244956D01*
D10*
X2845000Y-1265000D02*
X2845000Y-1300000D01*
D12*
X3250000Y-1525000D02*
X2970000Y-1525000D01*
X3250000Y-1235000D02*
X2970000Y-1235000D01*
D10*
X1555000Y-1285000D02*
X1555000Y-1320000D01*
D12*
X1960000Y-1545000D02*
X1680000Y-1545000D01*
X1960000Y-1255000D02*
X1680000Y-1255000D01*
D10*
X3530000Y-1940000D02*
X3460000Y-1940000D01*
D12*
X2550000Y-2520000D02*
X2550000Y-2120000D01*
X3550000Y-2520000D02*
X3550000Y-2120000D01*
D10*
X4790104Y-1939956D02*
X4720104Y-1939956D01*
D12*
X3810104Y-2519956D02*
X3810104Y-2119956D01*
X4810104Y-2519956D02*
X4810104Y-2119956D01*
D10*
X840000Y-5090000D02*
X840000Y-4910000D01*
D12*
X873000Y-5127000D02*
X1127000Y-5127000D01*
X1127000Y-5127000D02*
X1127000Y-4365000D01*
X1127000Y-4365000D02*
X873000Y-4365000D01*
X873000Y-4365000D02*
X873000Y-5127000D01*
D10*
X5635000Y-4390000D02*
X5635000Y-4570000D01*
D12*
X5602000Y-4353000D02*
X5348000Y-4353000D01*
X5348000Y-4353000D02*
X5348000Y-5115000D01*
X5348000Y-5115000D02*
X5602000Y-5115000D01*
X5602000Y-5115000D02*
X5602000Y-4353000D01*
D10*
X5635000Y-2890000D02*
X5635000Y-3070000D01*
D12*
X5602000Y-2853000D02*
X5348000Y-2853000D01*
X5348000Y-2853000D02*
X5348000Y-3615000D01*
X5348000Y-3615000D02*
X5602000Y-3615000D01*
X5602000Y-3615000D02*
X5602000Y-2853000D01*
D10*
X5635000Y-1390000D02*
X5635000Y-1570000D01*
D12*
X5602000Y-1353000D02*
X5348000Y-1353000D01*
X5348000Y-1353000D02*
X5348000Y-2115000D01*
X5348000Y-2115000D02*
X5602000Y-2115000D01*
X5602000Y-2115000D02*
X5602000Y-1353000D01*
D11*
X500000Y-1265000D02*
X600000Y-1265000D01*
X600000Y-1095000D02*
X500000Y-1095000D01*
X500000Y-1545000D02*
X600000Y-1545000D01*
X600000Y-1375000D02*
X500000Y-1375000D01*
D10*
X4415104Y-1274956D02*
X4415104Y-1309956D01*
D12*
X4820104Y-1534956D02*
X4540104Y-1534956D01*
X4820104Y-1244956D02*
X4540104Y-1244956D01*
D10*
X840000Y-3590000D02*
X840000Y-3410000D01*
D12*
X873000Y-3627000D02*
X1127000Y-3627000D01*
X1127000Y-3627000D02*
X1127000Y-2865000D01*
X1127000Y-2865000D02*
X873000Y-2865000D01*
X873000Y-2865000D02*
X873000Y-3627000D01*
D10*
X840000Y-2090000D02*
X840000Y-1910000D01*
D12*
X873000Y-2127000D02*
X1127000Y-2127000D01*
X1127000Y-2127000D02*
X1127000Y-1365000D01*
X1127000Y-1365000D02*
X873000Y-1365000D01*
X873000Y-1365000D02*
X873000Y-2127000D01*
D11*
X233333Y-915714D02*
X228571Y-920476D01*
X214286Y-925238D01*
X204762Y-925238D01*
X190476Y-920476D01*
X180952Y-910952D01*
X176190Y-901429D01*
X171429Y-882381D01*
X171429Y-868095D01*
X176190Y-849048D01*
X180952Y-839524D01*
X190476Y-830000D01*
X204762Y-825238D01*
X214286Y-825238D01*
X228571Y-830000D01*
X233333Y-834762D01*
X328572Y-925238D02*
X271429Y-925238D01*
X300000Y-925238D02*
X300000Y-825238D01*
X290476Y-839524D01*
X280952Y-849048D01*
X271429Y-853809D01*
X2745714Y-1366667D02*
X2750476Y-1371429D01*
X2755238Y-1385714D01*
X2755238Y-1395238D01*
X2750476Y-1409524D01*
X2740952Y-1419048D01*
X2731429Y-1423809D01*
X2712381Y-1428571D01*
X2698095Y-1428571D01*
X2679048Y-1423809D01*
X2669524Y-1419048D01*
X2660000Y-1409524D01*
X2655238Y-1395238D01*
X2655238Y-1385714D01*
X2660000Y-1371429D01*
X2664762Y-1366667D01*
X2688571Y-1280952D02*
X2755238Y-1280952D01*
X2650476Y-1304762D02*
X2721905Y-1328571D01*
X2721905Y-1266667D01*
X2175714Y-2506667D02*
X2180476Y-2511429D01*
X2185238Y-2525714D01*
X2185238Y-2535238D01*
X2180476Y-2549524D01*
X2170952Y-2559048D01*
X2161429Y-2563810D01*
X2142381Y-2568571D01*
X2128095Y-2568571D01*
X2109048Y-2563810D01*
X2099524Y-2559048D01*
X2090000Y-2549524D01*
X2085238Y-2535238D01*
X2085238Y-2525714D01*
X2090000Y-2511429D01*
X2094762Y-2506667D01*
X2085238Y-2416190D02*
X2085238Y-2463810D01*
X2132857Y-2468571D01*
X2128095Y-2463810D01*
X2123333Y-2454286D01*
X2123333Y-2430476D01*
X2128095Y-2420952D01*
X2132857Y-2416190D01*
X2142381Y-2411429D01*
X2166191Y-2411429D01*
X2175714Y-2416190D01*
X2180476Y-2420952D01*
X2185238Y-2430476D01*
X2185238Y-2454286D01*
X2180476Y-2463810D01*
X2175714Y-2468571D01*
X4133333Y-1825714D02*
X4128571Y-1830476D01*
X4114286Y-1835238D01*
X4104762Y-1835238D01*
X4090476Y-1830476D01*
X4080952Y-1820952D01*
X4076190Y-1811429D01*
X4071429Y-1792381D01*
X4071429Y-1778095D01*
X4076190Y-1759048D01*
X4080952Y-1749524D01*
X4090476Y-1740000D01*
X4104762Y-1735238D01*
X4114286Y-1735238D01*
X4128571Y-1740000D01*
X4133333Y-1744762D01*
X4219048Y-1735238D02*
X4200000Y-1735238D01*
X4190476Y-1740000D01*
X4185714Y-1744762D01*
X4176190Y-1759048D01*
X4171429Y-1778095D01*
X4171429Y-1816190D01*
X4176190Y-1825714D01*
X4180952Y-1830476D01*
X4190476Y-1835238D01*
X4209524Y-1835238D01*
X4219048Y-1830476D01*
X4223810Y-1825714D01*
X4228572Y-1816190D01*
X4228572Y-1792381D01*
X4223810Y-1782857D01*
X4219048Y-1778095D01*
X4209524Y-1773333D01*
X4190476Y-1773333D01*
X4180952Y-1778095D01*
X4176190Y-1782857D01*
X4171429Y-1792381D01*
X1903333Y-925714D02*
X1898571Y-930476D01*
X1884286Y-935238D01*
X1874762Y-935238D01*
X1860476Y-930476D01*
X1850952Y-920952D01*
X1846190Y-911429D01*
X1841429Y-892381D01*
X1841429Y-878095D01*
X1846190Y-859048D01*
X1850952Y-849524D01*
X1860476Y-840000D01*
X1874762Y-835238D01*
X1884286Y-835238D01*
X1898571Y-840000D01*
X1903333Y-844762D01*
X1936667Y-835238D02*
X2003333Y-835238D01*
X1960476Y-935238D01*
X2315238Y-2116667D02*
X2267619Y-2150000D01*
X2315238Y-2173810D02*
X2215238Y-2173810D01*
X2215238Y-2135714D01*
X2220000Y-2126190D01*
X2224762Y-2121429D01*
X2234286Y-2116667D01*
X2248571Y-2116667D01*
X2258095Y-2121429D01*
X2262857Y-2126190D01*
X2267619Y-2135714D01*
X2267619Y-2173810D01*
X2315238Y-2021428D02*
X2315238Y-2078571D01*
X2315238Y-2050000D02*
X2215238Y-2050000D01*
X2229524Y-2059524D01*
X2239048Y-2069048D01*
X2243810Y-2078571D01*
X2045238Y-2136667D02*
X1997619Y-2170000D01*
X2045238Y-2193810D02*
X1945238Y-2193810D01*
X1945238Y-2155714D01*
X1950000Y-2146190D01*
X1954762Y-2141429D01*
X1964286Y-2136667D01*
X1978571Y-2136667D01*
X1988095Y-2141429D01*
X1992857Y-2146190D01*
X1997619Y-2155714D01*
X1997619Y-2193810D01*
X1954762Y-2098571D02*
X1950000Y-2093809D01*
X1945238Y-2084286D01*
X1945238Y-2060476D01*
X1950000Y-2050952D01*
X1954762Y-2046190D01*
X1964286Y-2041428D01*
X1973809Y-2041428D01*
X1988095Y-2046190D01*
X2045238Y-2103333D01*
X2045238Y-2041428D01*
X1775238Y-2126667D02*
X1727619Y-2160000D01*
X1775238Y-2183810D02*
X1675238Y-2183810D01*
X1675238Y-2145714D01*
X1680000Y-2136190D01*
X1684762Y-2131429D01*
X1694286Y-2126667D01*
X1708571Y-2126667D01*
X1718095Y-2131429D01*
X1722857Y-2136190D01*
X1727619Y-2145714D01*
X1727619Y-2183810D01*
X1675238Y-2093333D02*
X1675238Y-2031428D01*
X1713333Y-2064762D01*
X1713333Y-2050476D01*
X1718095Y-2040952D01*
X1722857Y-2036190D01*
X1732381Y-2031428D01*
X1756190Y-2031428D01*
X1765714Y-2036190D01*
X1770476Y-2040952D01*
X1775238Y-2050476D01*
X1775238Y-2079048D01*
X1770476Y-2088571D01*
X1765714Y-2093333D01*
X3853809Y-1105238D02*
X3853809Y-1186191D01*
X3858571Y-1195714D01*
X3863333Y-1200476D01*
X3872857Y-1205238D01*
X3891905Y-1205238D01*
X3901429Y-1200476D01*
X3906190Y-1195714D01*
X3910952Y-1186191D01*
X3910952Y-1105238D01*
X4010952Y-1205238D02*
X3953809Y-1205238D01*
X3982381Y-1205238D02*
X3982381Y-1105238D01*
X3972857Y-1119524D01*
X3963333Y-1129048D01*
X3953809Y-1133810D01*
X3033809Y-1105238D02*
X3033809Y-1186191D01*
X3038571Y-1195714D01*
X3043333Y-1200476D01*
X3052857Y-1205238D01*
X3071905Y-1205238D01*
X3081429Y-1200476D01*
X3086190Y-1195714D01*
X3090952Y-1186191D01*
X3090952Y-1105238D01*
X3129048Y-1105238D02*
X3190952Y-1105238D01*
X3157619Y-1143333D01*
X3171905Y-1143333D01*
X3181429Y-1148095D01*
X3186190Y-1152857D01*
X3190952Y-1162381D01*
X3190952Y-1186191D01*
X3186190Y-1195714D01*
X3181429Y-1200476D01*
X3171905Y-1205238D01*
X3143333Y-1205238D01*
X3133809Y-1200476D01*
X3129048Y-1195714D01*
X1553809Y-1105238D02*
X1553809Y-1186191D01*
X1558571Y-1195714D01*
X1563333Y-1200476D01*
X1572857Y-1205238D01*
X1591905Y-1205238D01*
X1601429Y-1200476D01*
X1606190Y-1195714D01*
X1610952Y-1186191D01*
X1610952Y-1105238D01*
X1701429Y-1105238D02*
X1682381Y-1105238D01*
X1672857Y-1110000D01*
X1668095Y-1114762D01*
X1658571Y-1129048D01*
X1653809Y-1148095D01*
X1653809Y-1186191D01*
X1658571Y-1195714D01*
X1663333Y-1200476D01*
X1672857Y-1205238D01*
X1691905Y-1205238D01*
X1701429Y-1200476D01*
X1706190Y-1195714D01*
X1710952Y-1186191D01*
X1710952Y-1162381D01*
X1706190Y-1152857D01*
X1701429Y-1148095D01*
X1691905Y-1143333D01*
X1672857Y-1143333D01*
X1663333Y-1148095D01*
X1658571Y-1152857D01*
X1653809Y-1162381D01*
X3615238Y-2396191D02*
X3696190Y-2396191D01*
X3705714Y-2391429D01*
X3710476Y-2386667D01*
X3715238Y-2377143D01*
X3715238Y-2358095D01*
X3710476Y-2348571D01*
X3705714Y-2343810D01*
X3696190Y-2339048D01*
X3615238Y-2339048D01*
X3615238Y-2243810D02*
X3615238Y-2291429D01*
X3662857Y-2296191D01*
X3658095Y-2291429D01*
X3653333Y-2281905D01*
X3653333Y-2258095D01*
X3658095Y-2248571D01*
X3662857Y-2243810D01*
X3672381Y-2239048D01*
X3696190Y-2239048D01*
X3705714Y-2243810D01*
X3710476Y-2248571D01*
X3715238Y-2258095D01*
X3715238Y-2281905D01*
X3710476Y-2291429D01*
X3705714Y-2296191D01*
X4865238Y-2406191D02*
X4946191Y-2406191D01*
X4955714Y-2401429D01*
X4960476Y-2396667D01*
X4965238Y-2387143D01*
X4965238Y-2368095D01*
X4960476Y-2358571D01*
X4955714Y-2353810D01*
X4946191Y-2349048D01*
X4865238Y-2349048D01*
X4898571Y-2258571D02*
X4965238Y-2258571D01*
X4860476Y-2282381D02*
X4931905Y-2306191D01*
X4931905Y-2244286D01*
X685238Y-5043333D02*
X756667Y-5043333D01*
X770952Y-5048095D01*
X780476Y-5057619D01*
X785238Y-5071905D01*
X785238Y-5081429D01*
X685238Y-4948095D02*
X685238Y-4995714D01*
X732857Y-5000476D01*
X728095Y-4995714D01*
X723333Y-4986191D01*
X723333Y-4962381D01*
X728095Y-4952857D01*
X732857Y-4948095D01*
X742381Y-4943333D01*
X766190Y-4943333D01*
X775714Y-4948095D01*
X780476Y-4952857D01*
X785238Y-4962381D01*
X785238Y-4986191D01*
X780476Y-4995714D01*
X775714Y-5000476D01*
X5685238Y-4513333D02*
X5756667Y-4513333D01*
X5770952Y-4518095D01*
X5780476Y-4527619D01*
X5785238Y-4541905D01*
X5785238Y-4551429D01*
X5718571Y-4422857D02*
X5785238Y-4422857D01*
X5680476Y-4446667D02*
X5751905Y-4470476D01*
X5751905Y-4408571D01*
X5685238Y-3013333D02*
X5756667Y-3013333D01*
X5770952Y-3018095D01*
X5780476Y-3027619D01*
X5785238Y-3041905D01*
X5785238Y-3051429D01*
X5685238Y-2975238D02*
X5685238Y-2913333D01*
X5723333Y-2946667D01*
X5723333Y-2932381D01*
X5728095Y-2922857D01*
X5732857Y-2918095D01*
X5742381Y-2913333D01*
X5766190Y-2913333D01*
X5775714Y-2918095D01*
X5780476Y-2922857D01*
X5785238Y-2932381D01*
X5785238Y-2960952D01*
X5780476Y-2970476D01*
X5775714Y-2975238D01*
X5685238Y-1523333D02*
X5756667Y-1523333D01*
X5770952Y-1528095D01*
X5780476Y-1537619D01*
X5785238Y-1551905D01*
X5785238Y-1561429D01*
X5694762Y-1480476D02*
X5690000Y-1475714D01*
X5685238Y-1466190D01*
X5685238Y-1442381D01*
X5690000Y-1432857D01*
X5694762Y-1428095D01*
X5704286Y-1423333D01*
X5713809Y-1423333D01*
X5728095Y-1428095D01*
X5785238Y-1485238D01*
X5785238Y-1423333D01*
X223333Y-1235714D02*
X218571Y-1240476D01*
X204286Y-1245238D01*
X194762Y-1245238D01*
X180476Y-1240476D01*
X170952Y-1230952D01*
X166191Y-1221429D01*
X161429Y-1202381D01*
X161429Y-1188095D01*
X166191Y-1169048D01*
X170952Y-1159524D01*
X180476Y-1150000D01*
X194762Y-1145238D01*
X204286Y-1145238D01*
X218571Y-1150000D01*
X223333Y-1154762D01*
X261429Y-1154762D02*
X266191Y-1150000D01*
X275714Y-1145238D01*
X299524Y-1145238D01*
X309048Y-1150000D01*
X313810Y-1154762D01*
X318572Y-1164286D01*
X318572Y-1173810D01*
X313810Y-1188095D01*
X256667Y-1245238D01*
X318572Y-1245238D01*
X223333Y-1515714D02*
X218571Y-1520476D01*
X204286Y-1525238D01*
X194762Y-1525238D01*
X180476Y-1520476D01*
X170952Y-1510952D01*
X166191Y-1501429D01*
X161429Y-1482381D01*
X161429Y-1468095D01*
X166191Y-1449048D01*
X170952Y-1439524D01*
X180476Y-1430000D01*
X194762Y-1425238D01*
X204286Y-1425238D01*
X218571Y-1430000D01*
X223333Y-1434762D01*
X256667Y-1425238D02*
X318572Y-1425238D01*
X285238Y-1463333D01*
X299524Y-1463333D01*
X309048Y-1468095D01*
X313810Y-1472857D01*
X318572Y-1482381D01*
X318572Y-1506190D01*
X313810Y-1515714D01*
X309048Y-1520476D01*
X299524Y-1525238D01*
X270952Y-1525238D01*
X261429Y-1520476D01*
X256667Y-1515714D01*
X4593810Y-1095238D02*
X4593810Y-1176191D01*
X4598571Y-1185714D01*
X4603333Y-1190476D01*
X4612857Y-1195238D01*
X4631905Y-1195238D01*
X4641429Y-1190476D01*
X4646191Y-1185714D01*
X4650952Y-1176191D01*
X4650952Y-1095238D01*
X4693810Y-1104762D02*
X4698571Y-1100000D01*
X4708095Y-1095238D01*
X4731905Y-1095238D01*
X4741429Y-1100000D01*
X4746191Y-1104762D01*
X4750952Y-1114286D01*
X4750952Y-1123810D01*
X4746191Y-1138095D01*
X4689048Y-1195238D01*
X4750952Y-1195238D01*
X685238Y-3553333D02*
X756667Y-3553333D01*
X770952Y-3558095D01*
X780476Y-3567619D01*
X785238Y-3581905D01*
X785238Y-3591429D01*
X685238Y-3462857D02*
X685238Y-3481905D01*
X690000Y-3491429D01*
X694762Y-3496190D01*
X709048Y-3505714D01*
X728095Y-3510476D01*
X766190Y-3510476D01*
X775714Y-3505714D01*
X780476Y-3500952D01*
X785238Y-3491429D01*
X785238Y-3472381D01*
X780476Y-3462857D01*
X775714Y-3458095D01*
X766190Y-3453333D01*
X742381Y-3453333D01*
X732857Y-3458095D01*
X728095Y-3462857D01*
X723333Y-3472381D01*
X723333Y-3491429D01*
X728095Y-3500952D01*
X732857Y-3505714D01*
X742381Y-3510476D01*
X705238Y-2043333D02*
X776667Y-2043333D01*
X790952Y-2048095D01*
X800476Y-2057619D01*
X805238Y-2071905D01*
X805238Y-2081429D01*
X705238Y-2005238D02*
X705238Y-1938571D01*
X805238Y-1981429D01*
%LPC*%
D13*
X650000Y-880000D03*
X450000Y-880000D03*
D14*
X2440000Y-1200000D03*
X2440000Y-1500000D03*
D15*
X2350000Y-2590000D03*
X2350000Y-2390000D03*
D13*
X3960000Y-1760000D03*
X3760000Y-1760000D03*
X2020000Y-1060000D03*
X1820000Y-1060000D03*
D16*
X2220104Y-1744956D03*
X2220104Y-1934956D03*
X1950104Y-1744956D03*
X1950104Y-1934956D03*
X1660104Y-1744956D03*
X1660104Y-1934956D03*
D17*
X3760104Y-1292456D03*
X3760104Y-1357456D03*
X3760104Y-1422456D03*
X3760104Y-1487456D03*
X4100104Y-1487456D03*
X4100104Y-1422456D03*
X4100104Y-1357456D03*
X4100104Y-1292456D03*
X2940000Y-1282500D03*
X2940000Y-1347500D03*
X2940000Y-1412500D03*
X2940000Y-1477500D03*
X3280000Y-1477500D03*
X3280000Y-1412500D03*
X3280000Y-1347500D03*
X3280000Y-1282500D03*
X1650000Y-1302500D03*
X1650000Y-1367500D03*
X1650000Y-1432500D03*
X1650000Y-1497500D03*
X1990000Y-1497500D03*
X1990000Y-1432500D03*
X1990000Y-1367500D03*
X1990000Y-1302500D03*
D18*
X2986500Y-2590000D03*
X2859500Y-2590000D03*
X2605500Y-2590000D03*
X2732500Y-2590000D03*
X3240500Y-2590000D03*
X3113500Y-2590000D03*
X3367500Y-2590000D03*
X3494500Y-2590000D03*
X3494500Y-2050000D03*
X3367500Y-2050000D03*
X3113500Y-2050000D03*
X3240500Y-2050000D03*
X2732500Y-2050000D03*
X2605500Y-2050000D03*
X2859500Y-2050000D03*
X2986500Y-2050000D03*
X4246604Y-2589956D03*
X4119604Y-2589956D03*
X3865604Y-2589956D03*
X3992604Y-2589956D03*
X4500604Y-2589956D03*
X4373604Y-2589956D03*
X4627604Y-2589956D03*
X4754604Y-2589956D03*
X4754604Y-2049956D03*
X4627604Y-2049956D03*
X4373604Y-2049956D03*
X4500604Y-2049956D03*
X3992604Y-2049956D03*
X3865604Y-2049956D03*
X4119604Y-2049956D03*
X4246604Y-2049956D03*
D19*
X1000000Y-4492000D03*
X1000000Y-4746000D03*
D20*
X1000000Y-5000000D03*
D19*
X5475000Y-4988000D03*
X5475000Y-4734000D03*
D20*
X5475000Y-4480000D03*
D19*
X5475000Y-3488000D03*
X5475000Y-3234000D03*
D20*
X5475000Y-2980000D03*
D19*
X5475000Y-1988000D03*
X5475000Y-1734000D03*
D20*
X5475000Y-1480000D03*
D19*
X3867000Y-225000D03*
X819000Y-225000D03*
X1327000Y-225000D03*
X1073000Y-225000D03*
X1581000Y-225000D03*
X1835000Y-225000D03*
X2343000Y-225000D03*
X2089000Y-225000D03*
X2597000Y-225000D03*
X2851000Y-225000D03*
X5645000Y-225000D03*
X5391000Y-225000D03*
X4883000Y-225000D03*
X5137000Y-225000D03*
X4629000Y-225000D03*
X4375000Y-225000D03*
X3613000Y-225000D03*
X4121000Y-225000D03*
X3359000Y-225000D03*
X3105000Y-225000D03*
X2851000Y-479000D03*
X3105000Y-479000D03*
X3613000Y-479000D03*
X3359000Y-479000D03*
X3867000Y-479000D03*
X4121000Y-479000D03*
X4629000Y-479000D03*
X4375000Y-479000D03*
X5391000Y-479000D03*
X5645000Y-479000D03*
X5137000Y-479000D03*
X2597000Y-479000D03*
X2343000Y-479000D03*
X4883000Y-479000D03*
X2089000Y-479000D03*
X1835000Y-479000D03*
X1327000Y-479000D03*
X1581000Y-479000D03*
X1073000Y-479000D03*
D20*
X819000Y-479000D03*
D13*
X650000Y-1180000D03*
X450000Y-1180000D03*
X650000Y-1460000D03*
X450000Y-1460000D03*
D17*
X4510104Y-1292456D03*
X4510104Y-1357456D03*
X4510104Y-1422456D03*
X4510104Y-1487456D03*
X4850104Y-1487456D03*
X4850104Y-1422456D03*
X4850104Y-1357456D03*
X4850104Y-1292456D03*
D19*
X1000000Y-2992000D03*
X1000000Y-3246000D03*
D20*
X1000000Y-3500000D03*
D19*
X1000000Y-1492000D03*
X1000000Y-1746000D03*
D20*
X1000000Y-2000000D03*
M02*
