G04 #@! TF.FileFunction,Copper,L2,Bot,Signal*
%FSLAX45Y45*%
G04 Gerber Fmt 4.5, Leading zero omitted, Abs format (unit mm)*
G04 Created by KiCad (PCBNEW (2015-01-16 BZR 5376)-product) date 3/19/2015 6:58:58 PM*
%MOMM*%
G01*
G04 APERTURE LIST*
%ADD10C,0.100000*%
%ADD11C,1.800000*%
%ADD12R,1.800000X1.800000*%
%ADD13C,0.762000*%
%ADD14C,1.016000*%
%ADD15C,0.203200*%
%ADD16C,1.016000*%
%ADD17C,0.508000*%
%ADD18C,0.254000*%
G04 APERTURE END LIST*
D10*
D11*
X1000000Y-4492000D03*
X1000000Y-4746000D03*
D12*
X1000000Y-5000000D03*
D11*
X5475000Y-4988000D03*
X5475000Y-4734000D03*
D12*
X5475000Y-4480000D03*
D11*
X5475000Y-3488000D03*
X5475000Y-3234000D03*
D12*
X5475000Y-2980000D03*
D11*
X5475000Y-1988000D03*
X5475000Y-1734000D03*
D12*
X5475000Y-1480000D03*
D11*
X3867000Y-225000D03*
X819000Y-225000D03*
X1327000Y-225000D03*
X1073000Y-225000D03*
X1581000Y-225000D03*
X1835000Y-225000D03*
X2343000Y-225000D03*
X2089000Y-225000D03*
X2597000Y-225000D03*
X2851000Y-225000D03*
X5645000Y-225000D03*
X5391000Y-225000D03*
X4883000Y-225000D03*
X5137000Y-225000D03*
X4629000Y-225000D03*
X4375000Y-225000D03*
X3613000Y-225000D03*
X4121000Y-225000D03*
X3359000Y-225000D03*
X3105000Y-225000D03*
X2851000Y-479000D03*
X3105000Y-479000D03*
X3613000Y-479000D03*
X3359000Y-479000D03*
X3867000Y-479000D03*
X4121000Y-479000D03*
X4629000Y-479000D03*
X4375000Y-479000D03*
X5391000Y-479000D03*
X5645000Y-479000D03*
X5137000Y-479000D03*
X2597000Y-479000D03*
X2343000Y-479000D03*
X4883000Y-479000D03*
X2089000Y-479000D03*
X1835000Y-479000D03*
X1327000Y-479000D03*
X1581000Y-479000D03*
X1073000Y-479000D03*
D12*
X819000Y-479000D03*
D11*
X1000000Y-2992000D03*
X1000000Y-3246000D03*
D12*
X1000000Y-3500000D03*
D11*
X1000000Y-1492000D03*
X1000000Y-1746000D03*
D12*
X1000000Y-2000000D03*
D13*
X3120000Y-1870000D03*
X2990000Y-1880000D03*
X2730000Y-1880000D03*
X2860000Y-1860000D03*
X2500000Y-2590000D03*
X3860000Y-2750000D03*
D14*
X830000Y-1170000D03*
D13*
X3990000Y-1900000D03*
D14*
X880000Y-870000D03*
X2230000Y-1090000D03*
D13*
X3410000Y-1040000D03*
X4500000Y-1040000D03*
X2650000Y-850000D03*
X5265000Y-850000D03*
X3490104Y-849956D03*
X4310104Y-849956D03*
X2770000Y-940000D03*
X5135000Y-940000D03*
X4410104Y-939956D03*
X3600104Y-939956D03*
X1460000Y-690000D03*
X3740000Y-770000D03*
X1550000Y-800000D03*
X5010000Y-760000D03*
X4190000Y-770000D03*
D14*
X1600000Y-2100000D03*
X1600000Y-4490000D03*
X1600000Y-2980000D03*
X1750000Y-2270000D03*
X1750000Y-4740000D03*
X1746000Y-3246000D03*
X1920000Y-2440000D03*
X1900000Y-5000000D03*
X1900000Y-3500000D03*
D13*
X4120000Y-1680000D03*
X3580000Y-1680000D03*
X3240000Y-1650000D03*
X2750000Y-1650000D03*
D15*
X3110000Y-1880000D02*
X3110000Y-2330000D01*
X3120000Y-1870000D02*
X3110000Y-1880000D01*
X3000000Y-1890000D02*
X3000000Y-2330000D01*
X2990000Y-1880000D02*
X3000000Y-1890000D01*
X2720000Y-1890000D02*
X2720000Y-2330000D01*
X2730000Y-1880000D02*
X2720000Y-1890000D01*
X2860000Y-1860000D02*
X2860000Y-2330000D01*
X2860000Y-2330000D02*
X2860000Y-2320000D01*
X2860000Y-2320000D02*
X2860000Y-2330000D01*
X2500000Y-2590000D02*
X2500000Y-2330000D01*
X2500000Y-2330000D02*
X2500000Y-2340000D01*
X2500000Y-2340000D02*
X2500000Y-2330000D01*
X3860000Y-2750000D02*
X3860000Y-2330000D01*
X3860000Y-2330000D02*
X3860000Y-2350000D01*
X3860000Y-2350000D02*
X3860000Y-2330000D01*
D16*
X2430000Y-2330000D02*
X2500000Y-2330000D01*
X1380000Y-1280000D02*
X2430000Y-2330000D01*
X940000Y-1280000D02*
X1380000Y-1280000D01*
X830000Y-1170000D02*
X940000Y-1280000D01*
X2500000Y-2330000D02*
X2720000Y-2330000D01*
X2720000Y-2330000D02*
X2860000Y-2330000D01*
X2860000Y-2330000D02*
X3000000Y-2330000D01*
X3000000Y-2330000D02*
X3110000Y-2330000D01*
X3110000Y-2330000D02*
X3860000Y-2330000D01*
X3860000Y-2330000D02*
X3990000Y-2330000D01*
D15*
X3990000Y-1900000D02*
X3990000Y-2330000D01*
D16*
X880000Y-870000D02*
X1100000Y-1090000D01*
X1100000Y-1090000D02*
X2230000Y-1090000D01*
D15*
X3410000Y-1040000D02*
X4500000Y-1040000D01*
X2650000Y-849956D02*
X3490104Y-849956D01*
X2650000Y-850000D02*
X2650000Y-849956D01*
X5264956Y-849956D02*
X4310104Y-849956D01*
X5265000Y-850000D02*
X5264956Y-849956D01*
X4310104Y-849956D02*
X3490104Y-849956D01*
X2770000Y-940000D02*
X2770000Y-939956D01*
X4410104Y-939956D02*
X5134956Y-939956D01*
X5134956Y-939956D02*
X5135000Y-940000D01*
X3600104Y-939956D02*
X2770000Y-939956D01*
X4410104Y-939956D02*
X3600104Y-939956D01*
X4883000Y-479000D02*
X4883000Y-637000D01*
X4830000Y-690000D02*
X1460000Y-690000D01*
X4883000Y-637000D02*
X4830000Y-690000D01*
X1585000Y-765000D02*
X1550000Y-800000D01*
X3735000Y-765000D02*
X1585000Y-765000D01*
X3740000Y-770000D02*
X3735000Y-765000D01*
X4200000Y-760000D02*
X5010000Y-760000D01*
X4190000Y-770000D02*
X4200000Y-760000D01*
D17*
X1600000Y-2110000D02*
X1600000Y-2980000D01*
X1600000Y-2980000D02*
X1600000Y-4490000D01*
X1590000Y-2100000D02*
X1600000Y-2110000D01*
X1590000Y-2100000D02*
X1600000Y-2100000D01*
X1750000Y-4740000D02*
X1750000Y-3250000D01*
X1750000Y-3246000D02*
X1750000Y-2270000D01*
X1750000Y-3250000D02*
X1750000Y-3246000D01*
D18*
X1746000Y-3246000D02*
X1750000Y-3246000D01*
D17*
X1900000Y-2460000D02*
X1900000Y-3500000D01*
X1900000Y-3500000D02*
X1900000Y-5000000D01*
X1900000Y-2460000D02*
X1920000Y-2440000D01*
D15*
X3580000Y-1680000D02*
X4120000Y-1680000D01*
X2750000Y-1650000D02*
X3240000Y-1650000D01*
G36*
X6109802Y-70160D02*
X6089877Y-5469840D01*
X5771258Y-5469840D01*
X5771258Y-500169D01*
X5770582Y-477819D01*
X5770582Y-200134D01*
X5751507Y-153969D01*
X5716217Y-118617D01*
X5670085Y-99462D01*
X5620134Y-99418D01*
X5573969Y-118493D01*
X5538618Y-153783D01*
X5519462Y-199915D01*
X5519418Y-249866D01*
X5538493Y-296031D01*
X5573783Y-331383D01*
X5619915Y-350538D01*
X5669866Y-350582D01*
X5716031Y-331507D01*
X5751382Y-296217D01*
X5770538Y-250085D01*
X5770582Y-200134D01*
X5770582Y-477819D01*
X5769748Y-450241D01*
X5753546Y-411125D01*
X5735289Y-401283D01*
X5722716Y-413856D01*
X5722716Y-388711D01*
X5712874Y-370454D01*
X5666169Y-352742D01*
X5616241Y-354252D01*
X5577126Y-370454D01*
X5567284Y-388711D01*
X5645000Y-466428D01*
X5722716Y-388711D01*
X5722716Y-413856D01*
X5657572Y-479000D01*
X5735289Y-556717D01*
X5753546Y-546875D01*
X5771258Y-500169D01*
X5771258Y-5469840D01*
X5722716Y-5469840D01*
X5722716Y-569289D01*
X5645000Y-491572D01*
X5632428Y-504145D01*
X5632428Y-479000D01*
X5554711Y-401283D01*
X5536454Y-411125D01*
X5518742Y-457831D01*
X5520252Y-507759D01*
X5536454Y-546875D01*
X5554711Y-556717D01*
X5632428Y-479000D01*
X5632428Y-504145D01*
X5567284Y-569289D01*
X5577126Y-587546D01*
X5623831Y-605258D01*
X5673759Y-603748D01*
X5712874Y-587546D01*
X5722716Y-569289D01*
X5722716Y-5469840D01*
X5601257Y-5469840D01*
X5601257Y-4570000D01*
X5601257Y-4390000D01*
X5601257Y-3070000D01*
X5601257Y-2890000D01*
X5601257Y-1570000D01*
X5601257Y-1390000D01*
X5598626Y-1376441D01*
X5590798Y-1364524D01*
X5578980Y-1356547D01*
X5565000Y-1353743D01*
X5516582Y-1353743D01*
X5516582Y-454134D01*
X5516582Y-200134D01*
X5497507Y-153969D01*
X5462217Y-118617D01*
X5416085Y-99462D01*
X5366134Y-99418D01*
X5319969Y-118493D01*
X5284618Y-153783D01*
X5265462Y-199915D01*
X5265418Y-249866D01*
X5284493Y-296031D01*
X5319783Y-331383D01*
X5365915Y-350538D01*
X5415866Y-350582D01*
X5462031Y-331507D01*
X5497383Y-296217D01*
X5516538Y-250085D01*
X5516582Y-200134D01*
X5516582Y-454134D01*
X5497507Y-407969D01*
X5462217Y-372617D01*
X5416085Y-353462D01*
X5366134Y-353418D01*
X5319969Y-372493D01*
X5284618Y-407783D01*
X5265462Y-453915D01*
X5265418Y-503866D01*
X5284493Y-550031D01*
X5319783Y-585383D01*
X5365915Y-604538D01*
X5415866Y-604582D01*
X5462031Y-585507D01*
X5497383Y-550217D01*
X5516538Y-504085D01*
X5516582Y-454134D01*
X5516582Y-1353743D01*
X5385000Y-1353743D01*
X5371441Y-1356374D01*
X5359524Y-1364202D01*
X5351547Y-1376020D01*
X5348743Y-1390000D01*
X5348743Y-1570000D01*
X5351374Y-1583559D01*
X5359202Y-1595476D01*
X5371020Y-1603453D01*
X5385000Y-1606257D01*
X5565000Y-1606257D01*
X5578559Y-1603626D01*
X5590476Y-1595798D01*
X5598453Y-1583980D01*
X5601257Y-1570000D01*
X5601257Y-2890000D01*
X5600582Y-2886522D01*
X5600582Y-1963134D01*
X5600582Y-1709134D01*
X5581507Y-1662969D01*
X5546217Y-1627617D01*
X5500085Y-1608462D01*
X5450134Y-1608418D01*
X5403969Y-1627493D01*
X5368618Y-1662783D01*
X5349462Y-1708915D01*
X5349418Y-1758866D01*
X5368493Y-1805031D01*
X5403783Y-1840382D01*
X5449915Y-1859538D01*
X5499866Y-1859582D01*
X5546031Y-1840507D01*
X5581383Y-1805217D01*
X5600538Y-1759085D01*
X5600582Y-1709134D01*
X5600582Y-1963134D01*
X5581507Y-1916969D01*
X5546217Y-1881617D01*
X5500085Y-1862462D01*
X5450134Y-1862418D01*
X5403969Y-1881493D01*
X5368618Y-1916783D01*
X5349462Y-1962915D01*
X5349418Y-2012866D01*
X5368493Y-2059031D01*
X5403783Y-2094382D01*
X5449915Y-2113538D01*
X5499866Y-2113582D01*
X5546031Y-2094507D01*
X5581383Y-2059217D01*
X5600538Y-2013085D01*
X5600582Y-1963134D01*
X5600582Y-2886522D01*
X5598626Y-2876441D01*
X5590798Y-2864524D01*
X5578980Y-2856547D01*
X5565000Y-2853743D01*
X5385000Y-2853743D01*
X5371441Y-2856374D01*
X5359524Y-2864202D01*
X5351547Y-2876020D01*
X5348743Y-2890000D01*
X5348743Y-3070000D01*
X5351374Y-3083559D01*
X5359202Y-3095476D01*
X5371020Y-3103453D01*
X5385000Y-3106257D01*
X5565000Y-3106257D01*
X5578559Y-3103626D01*
X5590476Y-3095798D01*
X5598453Y-3083980D01*
X5601257Y-3070000D01*
X5601257Y-4390000D01*
X5600582Y-4386522D01*
X5600582Y-3463134D01*
X5600582Y-3209134D01*
X5581507Y-3162969D01*
X5546217Y-3127617D01*
X5500085Y-3108462D01*
X5450134Y-3108418D01*
X5403969Y-3127493D01*
X5368618Y-3162783D01*
X5349462Y-3208915D01*
X5349418Y-3258866D01*
X5368493Y-3305031D01*
X5403783Y-3340382D01*
X5449915Y-3359538D01*
X5499866Y-3359582D01*
X5546031Y-3340507D01*
X5581383Y-3305217D01*
X5600538Y-3259085D01*
X5600582Y-3209134D01*
X5600582Y-3463134D01*
X5581507Y-3416969D01*
X5546217Y-3381617D01*
X5500085Y-3362462D01*
X5450134Y-3362418D01*
X5403969Y-3381493D01*
X5368618Y-3416783D01*
X5349462Y-3462915D01*
X5349418Y-3512866D01*
X5368493Y-3559031D01*
X5403783Y-3594382D01*
X5449915Y-3613538D01*
X5499866Y-3613582D01*
X5546031Y-3594507D01*
X5581383Y-3559217D01*
X5600538Y-3513085D01*
X5600582Y-3463134D01*
X5600582Y-4386522D01*
X5598626Y-4376441D01*
X5590798Y-4364524D01*
X5578980Y-4356547D01*
X5565000Y-4353743D01*
X5385000Y-4353743D01*
X5371441Y-4356374D01*
X5359524Y-4364202D01*
X5351547Y-4376020D01*
X5348743Y-4390000D01*
X5348743Y-4570000D01*
X5351374Y-4583559D01*
X5359202Y-4595476D01*
X5371020Y-4603453D01*
X5385000Y-4606257D01*
X5565000Y-4606257D01*
X5578559Y-4603626D01*
X5590476Y-4595798D01*
X5598453Y-4583980D01*
X5601257Y-4570000D01*
X5601257Y-5469840D01*
X5600582Y-5469840D01*
X5600582Y-4963134D01*
X5600582Y-4709134D01*
X5581507Y-4662969D01*
X5546217Y-4627618D01*
X5500085Y-4608462D01*
X5450134Y-4608418D01*
X5403969Y-4627493D01*
X5368618Y-4662783D01*
X5349462Y-4708915D01*
X5349418Y-4758866D01*
X5368493Y-4805031D01*
X5403783Y-4840383D01*
X5449915Y-4859538D01*
X5499866Y-4859582D01*
X5546031Y-4840507D01*
X5581383Y-4805217D01*
X5600538Y-4759085D01*
X5600582Y-4709134D01*
X5600582Y-4963134D01*
X5581507Y-4916969D01*
X5546217Y-4881618D01*
X5500085Y-4862462D01*
X5450134Y-4862418D01*
X5403969Y-4881493D01*
X5368618Y-4916783D01*
X5349462Y-4962915D01*
X5349418Y-5012866D01*
X5368493Y-5059031D01*
X5403783Y-5094383D01*
X5449915Y-5113538D01*
X5499866Y-5113582D01*
X5546031Y-5094507D01*
X5581383Y-5059217D01*
X5600538Y-5013085D01*
X5600582Y-4963134D01*
X5600582Y-5469840D01*
X5345024Y-5469840D01*
X5345024Y-834155D01*
X5332869Y-804737D01*
X5310381Y-782210D01*
X5280985Y-770004D01*
X5262582Y-769988D01*
X5262582Y-454134D01*
X5262582Y-200134D01*
X5243507Y-153969D01*
X5208217Y-118617D01*
X5162085Y-99462D01*
X5112134Y-99418D01*
X5065969Y-118493D01*
X5030618Y-153783D01*
X5011462Y-199915D01*
X5011418Y-249866D01*
X5030493Y-296031D01*
X5065783Y-331383D01*
X5111915Y-350538D01*
X5161866Y-350582D01*
X5208031Y-331507D01*
X5243383Y-296217D01*
X5262538Y-250085D01*
X5262582Y-200134D01*
X5262582Y-454134D01*
X5243507Y-407969D01*
X5208217Y-372617D01*
X5162085Y-353462D01*
X5112134Y-353418D01*
X5065969Y-372493D01*
X5030618Y-407783D01*
X5011462Y-453915D01*
X5011418Y-503866D01*
X5030493Y-550031D01*
X5065783Y-585383D01*
X5111915Y-604538D01*
X5161866Y-604582D01*
X5208031Y-585507D01*
X5243383Y-550217D01*
X5262538Y-504085D01*
X5262582Y-454134D01*
X5262582Y-769988D01*
X5249155Y-769976D01*
X5219737Y-782131D01*
X5197594Y-804236D01*
X5078265Y-804236D01*
X5089996Y-775985D01*
X5090024Y-744155D01*
X5077869Y-714737D01*
X5055381Y-692210D01*
X5025985Y-680004D01*
X5009258Y-679989D01*
X5009258Y-246169D01*
X5007748Y-196241D01*
X4991546Y-157126D01*
X4973289Y-147284D01*
X4960717Y-159856D01*
X4960717Y-134711D01*
X4950875Y-116454D01*
X4904169Y-98742D01*
X4854241Y-100252D01*
X4815126Y-116454D01*
X4805284Y-134711D01*
X4883000Y-212428D01*
X4960717Y-134711D01*
X4960717Y-159856D01*
X4895572Y-225000D01*
X4973289Y-302717D01*
X4991546Y-292875D01*
X5009258Y-246169D01*
X5009258Y-679989D01*
X4994155Y-679976D01*
X4964737Y-692131D01*
X4942550Y-714280D01*
X4870378Y-714280D01*
X4915329Y-669329D01*
X4925240Y-654496D01*
X4928720Y-637000D01*
X4928720Y-595965D01*
X4954031Y-585507D01*
X4989383Y-550217D01*
X5008538Y-504085D01*
X5008582Y-454134D01*
X4989507Y-407969D01*
X4960717Y-379128D01*
X4960717Y-315289D01*
X4883000Y-237572D01*
X4870428Y-250145D01*
X4870428Y-225000D01*
X4792711Y-147284D01*
X4774454Y-157126D01*
X4756742Y-203831D01*
X4758252Y-253759D01*
X4774454Y-292875D01*
X4792711Y-302717D01*
X4870428Y-225000D01*
X4870428Y-250145D01*
X4805284Y-315289D01*
X4815126Y-333546D01*
X4861831Y-351258D01*
X4911759Y-349748D01*
X4950875Y-333546D01*
X4960717Y-315289D01*
X4960717Y-379128D01*
X4954217Y-372617D01*
X4908085Y-353462D01*
X4858134Y-353418D01*
X4811969Y-372493D01*
X4776618Y-407783D01*
X4757462Y-453915D01*
X4757418Y-503866D01*
X4776493Y-550031D01*
X4811783Y-585383D01*
X4837280Y-595970D01*
X4837280Y-618062D01*
X4811062Y-644280D01*
X4754582Y-644280D01*
X4754582Y-454134D01*
X4754582Y-200134D01*
X4735507Y-153969D01*
X4700217Y-118617D01*
X4654085Y-99462D01*
X4604134Y-99418D01*
X4557969Y-118493D01*
X4522618Y-153783D01*
X4503462Y-199915D01*
X4503418Y-249866D01*
X4522493Y-296031D01*
X4557783Y-331383D01*
X4603915Y-350538D01*
X4653866Y-350582D01*
X4700031Y-331507D01*
X4735383Y-296217D01*
X4754538Y-250085D01*
X4754582Y-200134D01*
X4754582Y-454134D01*
X4735507Y-407969D01*
X4700217Y-372617D01*
X4654085Y-353462D01*
X4604134Y-353418D01*
X4557969Y-372493D01*
X4522618Y-407783D01*
X4503462Y-453915D01*
X4503418Y-503866D01*
X4522493Y-550031D01*
X4557783Y-585383D01*
X4603915Y-604538D01*
X4653866Y-604582D01*
X4700031Y-585507D01*
X4735383Y-550217D01*
X4754538Y-504085D01*
X4754582Y-454134D01*
X4754582Y-644280D01*
X4501258Y-644280D01*
X4501258Y-246169D01*
X4499748Y-196241D01*
X4483546Y-157126D01*
X4465289Y-147284D01*
X4452717Y-159856D01*
X4452717Y-134711D01*
X4442875Y-116454D01*
X4396169Y-98742D01*
X4346241Y-100252D01*
X4307126Y-116454D01*
X4297284Y-134711D01*
X4375000Y-212428D01*
X4452717Y-134711D01*
X4452717Y-159856D01*
X4387572Y-225000D01*
X4465289Y-302717D01*
X4483546Y-292875D01*
X4501258Y-246169D01*
X4501258Y-644280D01*
X4500582Y-644280D01*
X4500582Y-454134D01*
X4481507Y-407969D01*
X4452717Y-379128D01*
X4452717Y-315289D01*
X4375000Y-237572D01*
X4362428Y-250145D01*
X4362428Y-225000D01*
X4284711Y-147284D01*
X4266454Y-157126D01*
X4248742Y-203831D01*
X4250252Y-253759D01*
X4266454Y-292875D01*
X4284711Y-302717D01*
X4362428Y-225000D01*
X4362428Y-250145D01*
X4297284Y-315289D01*
X4307126Y-333546D01*
X4353831Y-351258D01*
X4403759Y-349748D01*
X4442875Y-333546D01*
X4452717Y-315289D01*
X4452717Y-379128D01*
X4446217Y-372617D01*
X4400085Y-353462D01*
X4350134Y-353418D01*
X4303969Y-372493D01*
X4268618Y-407783D01*
X4249462Y-453915D01*
X4249418Y-503866D01*
X4268493Y-550031D01*
X4303783Y-585383D01*
X4349915Y-604538D01*
X4399866Y-604582D01*
X4446031Y-585507D01*
X4481383Y-550217D01*
X4500538Y-504085D01*
X4500582Y-454134D01*
X4500582Y-644280D01*
X4246582Y-644280D01*
X4246582Y-454134D01*
X4246582Y-200134D01*
X4227507Y-153969D01*
X4192217Y-118617D01*
X4146085Y-99462D01*
X4096134Y-99418D01*
X4049969Y-118493D01*
X4014617Y-153783D01*
X3995462Y-199915D01*
X3995418Y-249866D01*
X4014493Y-296031D01*
X4049783Y-331383D01*
X4095915Y-350538D01*
X4145866Y-350582D01*
X4192031Y-331507D01*
X4227383Y-296217D01*
X4246538Y-250085D01*
X4246582Y-200134D01*
X4246582Y-454134D01*
X4227507Y-407969D01*
X4192217Y-372617D01*
X4146085Y-353462D01*
X4096134Y-353418D01*
X4049969Y-372493D01*
X4014617Y-407783D01*
X3995462Y-453915D01*
X3995418Y-503866D01*
X4014493Y-550031D01*
X4049783Y-585383D01*
X4095915Y-604538D01*
X4145866Y-604582D01*
X4192031Y-585507D01*
X4227383Y-550217D01*
X4246538Y-504085D01*
X4246582Y-454134D01*
X4246582Y-644280D01*
X3993258Y-644280D01*
X3993258Y-500169D01*
X3992582Y-477819D01*
X3992582Y-200134D01*
X3973507Y-153969D01*
X3938217Y-118617D01*
X3892085Y-99462D01*
X3842134Y-99418D01*
X3795969Y-118493D01*
X3760617Y-153783D01*
X3741462Y-199915D01*
X3741418Y-249866D01*
X3760493Y-296031D01*
X3795783Y-331383D01*
X3841915Y-350538D01*
X3891866Y-350582D01*
X3938031Y-331507D01*
X3973382Y-296217D01*
X3992538Y-250085D01*
X3992582Y-200134D01*
X3992582Y-477819D01*
X3991748Y-450241D01*
X3975546Y-411125D01*
X3957289Y-401283D01*
X3944716Y-413856D01*
X3944716Y-388711D01*
X3934874Y-370454D01*
X3888169Y-352742D01*
X3838241Y-354252D01*
X3799125Y-370454D01*
X3789283Y-388711D01*
X3867000Y-466428D01*
X3944716Y-388711D01*
X3944716Y-413856D01*
X3879572Y-479000D01*
X3957289Y-556717D01*
X3975546Y-546875D01*
X3993258Y-500169D01*
X3993258Y-644280D01*
X3944716Y-644280D01*
X3944716Y-569289D01*
X3867000Y-491572D01*
X3854428Y-504145D01*
X3854428Y-479000D01*
X3776711Y-401283D01*
X3758454Y-411125D01*
X3740742Y-457831D01*
X3742252Y-507759D01*
X3758454Y-546875D01*
X3776711Y-556717D01*
X3854428Y-479000D01*
X3854428Y-504145D01*
X3789283Y-569289D01*
X3799125Y-587546D01*
X3845831Y-605258D01*
X3895759Y-603748D01*
X3934874Y-587546D01*
X3944716Y-569289D01*
X3944716Y-644280D01*
X3738582Y-644280D01*
X3738582Y-454134D01*
X3738582Y-200134D01*
X3719507Y-153969D01*
X3684217Y-118617D01*
X3638085Y-99462D01*
X3588134Y-99418D01*
X3541969Y-118493D01*
X3506617Y-153783D01*
X3487462Y-199915D01*
X3487418Y-249866D01*
X3506493Y-296031D01*
X3541783Y-331383D01*
X3587915Y-350538D01*
X3637866Y-350582D01*
X3684031Y-331507D01*
X3719382Y-296217D01*
X3738538Y-250085D01*
X3738582Y-200134D01*
X3738582Y-454134D01*
X3719507Y-407969D01*
X3684217Y-372617D01*
X3638085Y-353462D01*
X3588134Y-353418D01*
X3541969Y-372493D01*
X3506617Y-407783D01*
X3487462Y-453915D01*
X3487418Y-503866D01*
X3506493Y-550031D01*
X3541783Y-585383D01*
X3587915Y-604538D01*
X3637866Y-604582D01*
X3684031Y-585507D01*
X3719382Y-550217D01*
X3738538Y-504085D01*
X3738582Y-454134D01*
X3738582Y-644280D01*
X3484582Y-644280D01*
X3484582Y-454134D01*
X3484582Y-200134D01*
X3465507Y-153969D01*
X3430217Y-118617D01*
X3384085Y-99462D01*
X3334134Y-99418D01*
X3287969Y-118493D01*
X3252617Y-153783D01*
X3233462Y-199915D01*
X3233418Y-249866D01*
X3252493Y-296031D01*
X3287783Y-331383D01*
X3333915Y-350538D01*
X3383866Y-350582D01*
X3430031Y-331507D01*
X3465382Y-296217D01*
X3484538Y-250085D01*
X3484582Y-200134D01*
X3484582Y-454134D01*
X3465507Y-407969D01*
X3430217Y-372617D01*
X3384085Y-353462D01*
X3334134Y-353418D01*
X3287969Y-372493D01*
X3252617Y-407783D01*
X3233462Y-453915D01*
X3233418Y-503866D01*
X3252493Y-550031D01*
X3287783Y-585383D01*
X3333915Y-604538D01*
X3383866Y-604582D01*
X3430031Y-585507D01*
X3465382Y-550217D01*
X3484538Y-504085D01*
X3484582Y-454134D01*
X3484582Y-644280D01*
X3231258Y-644280D01*
X3231258Y-246169D01*
X3229748Y-196241D01*
X3213546Y-157126D01*
X3195289Y-147284D01*
X3182716Y-159856D01*
X3182716Y-134711D01*
X3172874Y-116454D01*
X3126169Y-98742D01*
X3076241Y-100252D01*
X3037125Y-116454D01*
X3027283Y-134711D01*
X3105000Y-212428D01*
X3182716Y-134711D01*
X3182716Y-159856D01*
X3117572Y-225000D01*
X3195289Y-302717D01*
X3213546Y-292875D01*
X3231258Y-246169D01*
X3231258Y-644280D01*
X3230582Y-644280D01*
X3230582Y-454134D01*
X3211507Y-407969D01*
X3182716Y-379128D01*
X3182716Y-315289D01*
X3105000Y-237572D01*
X3092428Y-250145D01*
X3092428Y-225000D01*
X3014711Y-147284D01*
X2996454Y-157126D01*
X2978742Y-203831D01*
X2980252Y-253759D01*
X2996454Y-292875D01*
X3014711Y-302717D01*
X3092428Y-225000D01*
X3092428Y-250145D01*
X3027283Y-315289D01*
X3037125Y-333546D01*
X3083831Y-351258D01*
X3133759Y-349748D01*
X3172874Y-333546D01*
X3182716Y-315289D01*
X3182716Y-379128D01*
X3176217Y-372617D01*
X3130085Y-353462D01*
X3080134Y-353418D01*
X3033969Y-372493D01*
X2998617Y-407783D01*
X2979462Y-453915D01*
X2979418Y-503866D01*
X2998493Y-550031D01*
X3033783Y-585383D01*
X3079915Y-604538D01*
X3129866Y-604582D01*
X3176031Y-585507D01*
X3211382Y-550217D01*
X3230538Y-504085D01*
X3230582Y-454134D01*
X3230582Y-644280D01*
X2976582Y-644280D01*
X2976582Y-454134D01*
X2976582Y-200134D01*
X2957507Y-153969D01*
X2922217Y-118617D01*
X2876085Y-99462D01*
X2826134Y-99418D01*
X2779969Y-118493D01*
X2744618Y-153783D01*
X2725462Y-199915D01*
X2725418Y-249866D01*
X2744493Y-296031D01*
X2779783Y-331383D01*
X2825915Y-350538D01*
X2875866Y-350582D01*
X2922031Y-331507D01*
X2957382Y-296217D01*
X2976538Y-250085D01*
X2976582Y-200134D01*
X2976582Y-454134D01*
X2957507Y-407969D01*
X2922217Y-372617D01*
X2876085Y-353462D01*
X2826134Y-353418D01*
X2779969Y-372493D01*
X2744618Y-407783D01*
X2725462Y-453915D01*
X2725418Y-503866D01*
X2744493Y-550031D01*
X2779783Y-585383D01*
X2825915Y-604538D01*
X2875866Y-604582D01*
X2922031Y-585507D01*
X2957382Y-550217D01*
X2976538Y-504085D01*
X2976582Y-454134D01*
X2976582Y-644280D01*
X2722582Y-644280D01*
X2722582Y-454134D01*
X2722582Y-200134D01*
X2703507Y-153969D01*
X2668217Y-118617D01*
X2622085Y-99462D01*
X2572134Y-99418D01*
X2525969Y-118493D01*
X2490618Y-153783D01*
X2471462Y-199915D01*
X2471418Y-249866D01*
X2490493Y-296031D01*
X2525783Y-331383D01*
X2571915Y-350538D01*
X2621866Y-350582D01*
X2668031Y-331507D01*
X2703383Y-296217D01*
X2722538Y-250085D01*
X2722582Y-200134D01*
X2722582Y-454134D01*
X2703507Y-407969D01*
X2668217Y-372617D01*
X2622085Y-353462D01*
X2572134Y-353418D01*
X2525969Y-372493D01*
X2490618Y-407783D01*
X2471462Y-453915D01*
X2471418Y-503866D01*
X2490493Y-550031D01*
X2525783Y-585383D01*
X2571915Y-604538D01*
X2621866Y-604582D01*
X2668031Y-585507D01*
X2703383Y-550217D01*
X2722538Y-504085D01*
X2722582Y-454134D01*
X2722582Y-644280D01*
X2469258Y-644280D01*
X2469258Y-246169D01*
X2467748Y-196241D01*
X2451546Y-157126D01*
X2433289Y-147284D01*
X2420717Y-159856D01*
X2420717Y-134711D01*
X2410875Y-116454D01*
X2364169Y-98742D01*
X2314241Y-100252D01*
X2275126Y-116454D01*
X2265284Y-134711D01*
X2343000Y-212428D01*
X2420717Y-134711D01*
X2420717Y-159856D01*
X2355572Y-225000D01*
X2433289Y-302717D01*
X2451546Y-292875D01*
X2469258Y-246169D01*
X2469258Y-644280D01*
X2468582Y-644280D01*
X2468582Y-454134D01*
X2449507Y-407969D01*
X2420717Y-379128D01*
X2420717Y-315289D01*
X2343000Y-237572D01*
X2330428Y-250145D01*
X2330428Y-225000D01*
X2252711Y-147284D01*
X2234454Y-157126D01*
X2216742Y-203831D01*
X2218252Y-253759D01*
X2234454Y-292875D01*
X2252711Y-302717D01*
X2330428Y-225000D01*
X2330428Y-250145D01*
X2265284Y-315289D01*
X2275126Y-333546D01*
X2321831Y-351258D01*
X2371759Y-349748D01*
X2410875Y-333546D01*
X2420717Y-315289D01*
X2420717Y-379128D01*
X2414217Y-372617D01*
X2368085Y-353462D01*
X2318134Y-353418D01*
X2271969Y-372493D01*
X2236618Y-407783D01*
X2217462Y-453915D01*
X2217418Y-503866D01*
X2236493Y-550031D01*
X2271783Y-585383D01*
X2317915Y-604538D01*
X2367866Y-604582D01*
X2414031Y-585507D01*
X2449383Y-550217D01*
X2468538Y-504085D01*
X2468582Y-454134D01*
X2468582Y-644280D01*
X2214582Y-644280D01*
X2214582Y-454134D01*
X2214582Y-200134D01*
X2195507Y-153969D01*
X2160217Y-118617D01*
X2114085Y-99462D01*
X2064134Y-99418D01*
X2017969Y-118493D01*
X1982617Y-153783D01*
X1963462Y-199915D01*
X1963418Y-249866D01*
X1982493Y-296031D01*
X2017783Y-331383D01*
X2063915Y-350538D01*
X2113866Y-350582D01*
X2160031Y-331507D01*
X2195383Y-296217D01*
X2214538Y-250085D01*
X2214582Y-200134D01*
X2214582Y-454134D01*
X2195507Y-407969D01*
X2160217Y-372617D01*
X2114085Y-353462D01*
X2064134Y-353418D01*
X2017969Y-372493D01*
X1982617Y-407783D01*
X1963462Y-453915D01*
X1963418Y-503866D01*
X1982493Y-550031D01*
X2017783Y-585383D01*
X2063915Y-604538D01*
X2113866Y-604582D01*
X2160031Y-585507D01*
X2195383Y-550217D01*
X2214538Y-504085D01*
X2214582Y-454134D01*
X2214582Y-644280D01*
X1961258Y-644280D01*
X1961258Y-500169D01*
X1960582Y-477819D01*
X1960582Y-200134D01*
X1941507Y-153969D01*
X1906217Y-118617D01*
X1860085Y-99462D01*
X1810134Y-99418D01*
X1763969Y-118493D01*
X1728617Y-153783D01*
X1709462Y-199915D01*
X1709418Y-249866D01*
X1728493Y-296031D01*
X1763783Y-331383D01*
X1809915Y-350538D01*
X1859866Y-350582D01*
X1906031Y-331507D01*
X1941382Y-296217D01*
X1960538Y-250085D01*
X1960582Y-200134D01*
X1960582Y-477819D01*
X1959748Y-450241D01*
X1943546Y-411125D01*
X1925289Y-401283D01*
X1912716Y-413856D01*
X1912716Y-388711D01*
X1902874Y-370454D01*
X1856169Y-352742D01*
X1806241Y-354252D01*
X1767125Y-370454D01*
X1757283Y-388711D01*
X1835000Y-466428D01*
X1912716Y-388711D01*
X1912716Y-413856D01*
X1847572Y-479000D01*
X1925289Y-556717D01*
X1943546Y-546875D01*
X1961258Y-500169D01*
X1961258Y-644280D01*
X1912716Y-644280D01*
X1912716Y-569289D01*
X1835000Y-491572D01*
X1822428Y-504145D01*
X1822428Y-479000D01*
X1744711Y-401283D01*
X1726454Y-411125D01*
X1708742Y-457831D01*
X1710252Y-507759D01*
X1726454Y-546875D01*
X1744711Y-556717D01*
X1822428Y-479000D01*
X1822428Y-504145D01*
X1757283Y-569289D01*
X1767125Y-587546D01*
X1813831Y-605258D01*
X1863759Y-603748D01*
X1902874Y-587546D01*
X1912716Y-569289D01*
X1912716Y-644280D01*
X1706582Y-644280D01*
X1706582Y-454134D01*
X1706582Y-200134D01*
X1687507Y-153969D01*
X1652217Y-118617D01*
X1606085Y-99462D01*
X1556134Y-99418D01*
X1509969Y-118493D01*
X1474617Y-153783D01*
X1455462Y-199915D01*
X1455418Y-249866D01*
X1474493Y-296031D01*
X1509783Y-331383D01*
X1555915Y-350538D01*
X1605866Y-350582D01*
X1652031Y-331507D01*
X1687382Y-296217D01*
X1706538Y-250085D01*
X1706582Y-200134D01*
X1706582Y-454134D01*
X1687507Y-407969D01*
X1652217Y-372617D01*
X1606085Y-353462D01*
X1556134Y-353418D01*
X1509969Y-372493D01*
X1474617Y-407783D01*
X1455462Y-453915D01*
X1455418Y-503866D01*
X1474493Y-550031D01*
X1509783Y-585383D01*
X1555915Y-604538D01*
X1605866Y-604582D01*
X1652031Y-585507D01*
X1687382Y-550217D01*
X1706538Y-504085D01*
X1706582Y-454134D01*
X1706582Y-644280D01*
X1527412Y-644280D01*
X1505381Y-622210D01*
X1475985Y-610004D01*
X1453258Y-609984D01*
X1453258Y-246169D01*
X1451748Y-196241D01*
X1435546Y-157126D01*
X1417289Y-147284D01*
X1404716Y-159856D01*
X1404716Y-134711D01*
X1394875Y-116454D01*
X1348169Y-98742D01*
X1298241Y-100252D01*
X1259126Y-116454D01*
X1249284Y-134711D01*
X1327000Y-212428D01*
X1404716Y-134711D01*
X1404716Y-159856D01*
X1339572Y-225000D01*
X1417289Y-302717D01*
X1435546Y-292875D01*
X1453258Y-246169D01*
X1453258Y-609984D01*
X1452582Y-609983D01*
X1452582Y-454134D01*
X1433507Y-407969D01*
X1404716Y-379128D01*
X1404716Y-315289D01*
X1327000Y-237572D01*
X1314428Y-250145D01*
X1314428Y-225000D01*
X1236711Y-147284D01*
X1218454Y-157126D01*
X1200742Y-203831D01*
X1202252Y-253759D01*
X1218454Y-292875D01*
X1236711Y-302717D01*
X1314428Y-225000D01*
X1314428Y-250145D01*
X1249284Y-315289D01*
X1259126Y-333546D01*
X1305831Y-351258D01*
X1355759Y-349748D01*
X1394875Y-333546D01*
X1404716Y-315289D01*
X1404716Y-379128D01*
X1398217Y-372617D01*
X1352085Y-353462D01*
X1302134Y-353418D01*
X1255969Y-372493D01*
X1220618Y-407783D01*
X1201462Y-453915D01*
X1201418Y-503866D01*
X1220493Y-550031D01*
X1255783Y-585383D01*
X1301915Y-604538D01*
X1351866Y-604582D01*
X1398031Y-585507D01*
X1433382Y-550217D01*
X1452538Y-504085D01*
X1452582Y-454134D01*
X1452582Y-609983D01*
X1444155Y-609976D01*
X1414737Y-622131D01*
X1392210Y-644619D01*
X1380004Y-674015D01*
X1379976Y-705845D01*
X1392131Y-735263D01*
X1414619Y-757790D01*
X1444015Y-769996D01*
X1475814Y-770024D01*
X1470004Y-784015D01*
X1469976Y-815845D01*
X1482131Y-845263D01*
X1504619Y-867790D01*
X1534015Y-879996D01*
X1565845Y-880024D01*
X1595263Y-867869D01*
X1617790Y-845381D01*
X1629996Y-815985D01*
X1630001Y-810720D01*
X2579677Y-810720D01*
X2570004Y-834015D01*
X2569976Y-865845D01*
X2582131Y-895263D01*
X2604619Y-917790D01*
X2634015Y-929996D01*
X2665845Y-930024D01*
X2691996Y-919219D01*
X2690004Y-924015D01*
X2689976Y-955845D01*
X2702131Y-985263D01*
X2724619Y-1007790D01*
X2754015Y-1019996D01*
X2785845Y-1020024D01*
X2815263Y-1007869D01*
X2837494Y-985676D01*
X3351169Y-985676D01*
X3342210Y-994619D01*
X3330004Y-1024015D01*
X3329976Y-1055845D01*
X3342131Y-1085263D01*
X3364619Y-1107790D01*
X3394015Y-1119996D01*
X3425845Y-1120024D01*
X3455263Y-1107869D01*
X3477450Y-1085720D01*
X4432588Y-1085720D01*
X4454619Y-1107790D01*
X4484015Y-1119996D01*
X4515845Y-1120024D01*
X4545263Y-1107869D01*
X4567790Y-1085381D01*
X4579996Y-1055985D01*
X4580024Y-1024155D01*
X4567869Y-994737D01*
X4558823Y-985676D01*
X5067544Y-985676D01*
X5089619Y-1007790D01*
X5119015Y-1019996D01*
X5150845Y-1020024D01*
X5180263Y-1007869D01*
X5202790Y-985381D01*
X5214996Y-955985D01*
X5215024Y-924155D01*
X5207291Y-905440D01*
X5219619Y-917790D01*
X5249015Y-929996D01*
X5280845Y-930024D01*
X5310263Y-917869D01*
X5332790Y-895381D01*
X5344996Y-865985D01*
X5345024Y-834155D01*
X5345024Y-5469840D01*
X4186051Y-5469840D01*
X4186051Y-1666921D01*
X4176019Y-1642640D01*
X4157457Y-1624047D01*
X4133194Y-1613971D01*
X4106921Y-1613949D01*
X4082640Y-1623981D01*
X4072324Y-1634280D01*
X3647412Y-1634280D01*
X3625381Y-1612210D01*
X3595985Y-1600004D01*
X3564155Y-1599976D01*
X3534737Y-1612131D01*
X3512210Y-1634619D01*
X3500004Y-1664015D01*
X3499976Y-1695845D01*
X3512131Y-1725263D01*
X3534619Y-1747790D01*
X3564015Y-1759996D01*
X3595845Y-1760024D01*
X3625263Y-1747869D01*
X3647450Y-1725720D01*
X4072327Y-1725720D01*
X4082542Y-1735953D01*
X4106806Y-1746028D01*
X4133078Y-1746051D01*
X4157360Y-1736019D01*
X4175953Y-1717457D01*
X4186028Y-1693194D01*
X4186051Y-1666921D01*
X4186051Y-5469840D01*
X4076360Y-5469840D01*
X4076360Y-2330000D01*
X4069786Y-2296952D01*
X4051066Y-2268934D01*
X4035720Y-2258681D01*
X4035720Y-1947673D01*
X4045953Y-1937457D01*
X4056028Y-1913194D01*
X4056051Y-1886921D01*
X4046019Y-1862640D01*
X4027457Y-1844047D01*
X4003194Y-1833971D01*
X3976921Y-1833949D01*
X3952640Y-1843981D01*
X3934047Y-1862542D01*
X3923971Y-1886806D01*
X3923949Y-1913078D01*
X3933981Y-1937360D01*
X3944280Y-1947676D01*
X3944280Y-2243640D01*
X3860000Y-2243640D01*
X3320024Y-2243640D01*
X3320024Y-1634155D01*
X3307869Y-1604737D01*
X3285381Y-1582210D01*
X3255985Y-1570004D01*
X3224155Y-1569976D01*
X3194737Y-1582131D01*
X3172550Y-1604280D01*
X2817412Y-1604280D01*
X2795381Y-1582210D01*
X2765985Y-1570004D01*
X2734155Y-1569976D01*
X2704737Y-1582131D01*
X2682210Y-1604619D01*
X2670004Y-1634015D01*
X2669976Y-1665845D01*
X2682131Y-1695263D01*
X2704619Y-1717790D01*
X2734015Y-1729996D01*
X2765845Y-1730024D01*
X2795263Y-1717869D01*
X2817450Y-1695720D01*
X3172588Y-1695720D01*
X3194619Y-1717790D01*
X3224015Y-1729996D01*
X3255845Y-1730024D01*
X3285263Y-1717869D01*
X3307790Y-1695381D01*
X3319996Y-1665985D01*
X3320024Y-1634155D01*
X3320024Y-2243640D01*
X3155720Y-2243640D01*
X3155720Y-1926696D01*
X3157360Y-1926019D01*
X3175953Y-1907457D01*
X3186028Y-1883194D01*
X3186051Y-1856921D01*
X3176019Y-1832640D01*
X3157457Y-1814047D01*
X3133194Y-1803971D01*
X3106921Y-1803949D01*
X3082640Y-1813981D01*
X3064047Y-1832542D01*
X3053971Y-1856806D01*
X3053967Y-1861877D01*
X3046019Y-1842640D01*
X3027457Y-1824047D01*
X3003194Y-1813971D01*
X2976921Y-1813949D01*
X2952640Y-1823981D01*
X2934047Y-1842542D01*
X2926038Y-1861828D01*
X2926051Y-1846921D01*
X2916019Y-1822640D01*
X2897457Y-1804047D01*
X2873194Y-1793971D01*
X2846921Y-1793949D01*
X2822640Y-1803981D01*
X2804047Y-1822542D01*
X2793972Y-1846806D01*
X2793958Y-1861856D01*
X2786019Y-1842640D01*
X2767458Y-1824047D01*
X2743194Y-1813971D01*
X2716922Y-1813949D01*
X2692640Y-1823981D01*
X2674047Y-1842542D01*
X2663972Y-1866806D01*
X2663949Y-1893078D01*
X2673981Y-1917360D01*
X2674280Y-1917659D01*
X2674280Y-2243640D01*
X2500000Y-2243640D01*
X2465771Y-2243640D01*
X2316375Y-2094244D01*
X2316375Y-1072897D01*
X2309786Y-1056952D01*
X2303255Y-1041145D01*
X2278983Y-1016830D01*
X2247253Y-1003655D01*
X2212897Y-1003625D01*
X2212861Y-1003640D01*
X1198582Y-1003640D01*
X1198582Y-454134D01*
X1198582Y-200134D01*
X1179507Y-153969D01*
X1144217Y-118617D01*
X1098085Y-99462D01*
X1048134Y-99418D01*
X1001969Y-118493D01*
X966617Y-153783D01*
X947462Y-199915D01*
X947418Y-249866D01*
X966493Y-296031D01*
X1001783Y-331383D01*
X1047915Y-350538D01*
X1097866Y-350582D01*
X1144031Y-331507D01*
X1179383Y-296217D01*
X1198538Y-250085D01*
X1198582Y-200134D01*
X1198582Y-454134D01*
X1179507Y-407969D01*
X1144217Y-372617D01*
X1098085Y-353462D01*
X1048134Y-353418D01*
X1001969Y-372493D01*
X966617Y-407783D01*
X947462Y-453915D01*
X947418Y-503866D01*
X966493Y-550031D01*
X1001783Y-585383D01*
X1047915Y-604538D01*
X1097866Y-604582D01*
X1144031Y-585507D01*
X1179383Y-550217D01*
X1198538Y-504085D01*
X1198582Y-454134D01*
X1198582Y-1003640D01*
X1135771Y-1003640D01*
X945257Y-813125D01*
X945257Y-569000D01*
X945257Y-389000D01*
X944582Y-385522D01*
X944582Y-200134D01*
X925507Y-153969D01*
X890217Y-118617D01*
X844085Y-99462D01*
X794134Y-99418D01*
X747969Y-118493D01*
X712617Y-153783D01*
X693462Y-199915D01*
X693418Y-249866D01*
X712493Y-296031D01*
X747783Y-331383D01*
X793915Y-350538D01*
X843866Y-350582D01*
X890031Y-331507D01*
X925382Y-296217D01*
X944538Y-250085D01*
X944582Y-200134D01*
X944582Y-385522D01*
X942626Y-375441D01*
X934798Y-363524D01*
X922980Y-355547D01*
X909000Y-352743D01*
X729000Y-352743D01*
X715441Y-355374D01*
X703524Y-363202D01*
X695547Y-375020D01*
X692743Y-389000D01*
X692743Y-569000D01*
X695374Y-582559D01*
X703202Y-594476D01*
X715020Y-602453D01*
X729000Y-605257D01*
X909000Y-605257D01*
X922559Y-602626D01*
X934476Y-594798D01*
X942453Y-582980D01*
X945257Y-569000D01*
X945257Y-813125D01*
X941147Y-809016D01*
X928983Y-796830D01*
X897253Y-783655D01*
X862897Y-783625D01*
X831145Y-796745D01*
X806830Y-821017D01*
X793655Y-852747D01*
X793625Y-887103D01*
X806745Y-918855D01*
X831017Y-943170D01*
X831053Y-943185D01*
X1038934Y-1151066D01*
X1066952Y-1169786D01*
X1100000Y-1176360D01*
X2229925Y-1176360D01*
X2230000Y-1176360D01*
X2247103Y-1176375D01*
X2263049Y-1169786D01*
X2278855Y-1163255D01*
X2291066Y-1151066D01*
X2303170Y-1138983D01*
X2309786Y-1123049D01*
X2316345Y-1107253D01*
X2316360Y-1090000D01*
X2316375Y-1072897D01*
X2316375Y-2094244D01*
X1441066Y-1218934D01*
X1413048Y-1200214D01*
X1380000Y-1193640D01*
X975771Y-1193640D01*
X891147Y-1109016D01*
X878983Y-1096830D01*
X847253Y-1083655D01*
X812897Y-1083625D01*
X781145Y-1096745D01*
X756830Y-1121017D01*
X743655Y-1152747D01*
X743625Y-1187103D01*
X756745Y-1218855D01*
X781017Y-1243170D01*
X781053Y-1243185D01*
X878934Y-1341066D01*
X906951Y-1359786D01*
X940000Y-1366360D01*
X1344229Y-1366360D01*
X2368934Y-2391066D01*
X2368934Y-2391066D01*
X2396951Y-2409786D01*
X2396952Y-2409786D01*
X2402435Y-2410877D01*
X2430000Y-2416360D01*
X2454280Y-2416360D01*
X2454280Y-2542327D01*
X2444047Y-2552543D01*
X2433972Y-2576806D01*
X2433949Y-2603079D01*
X2443981Y-2627360D01*
X2462543Y-2645953D01*
X2486806Y-2656029D01*
X2513079Y-2656051D01*
X2537360Y-2646019D01*
X2555953Y-2627458D01*
X2566029Y-2603194D01*
X2566051Y-2576922D01*
X2556019Y-2552640D01*
X2545720Y-2542324D01*
X2545720Y-2416360D01*
X2720000Y-2416360D01*
X2860000Y-2416360D01*
X3000000Y-2416360D01*
X3110000Y-2416360D01*
X3814280Y-2416360D01*
X3814280Y-2702327D01*
X3804047Y-2712543D01*
X3793971Y-2736806D01*
X3793949Y-2763079D01*
X3803981Y-2787360D01*
X3822542Y-2805953D01*
X3846806Y-2816028D01*
X3873078Y-2816051D01*
X3897360Y-2806019D01*
X3915953Y-2787458D01*
X3926028Y-2763194D01*
X3926051Y-2736922D01*
X3916019Y-2712640D01*
X3905720Y-2702324D01*
X3905720Y-2416360D01*
X3990000Y-2416360D01*
X4023048Y-2409786D01*
X4051066Y-2391066D01*
X4069786Y-2363049D01*
X4076360Y-2330000D01*
X4076360Y-5469840D01*
X2006375Y-5469840D01*
X2006375Y-2422897D01*
X1993255Y-2391145D01*
X1968983Y-2366830D01*
X1937253Y-2353655D01*
X1902897Y-2353625D01*
X1871145Y-2366745D01*
X1846830Y-2391017D01*
X1833655Y-2422747D01*
X1833625Y-2457103D01*
X1839040Y-2470208D01*
X1839040Y-3438829D01*
X1826830Y-3451017D01*
X1813655Y-3482747D01*
X1813625Y-3517103D01*
X1826745Y-3548855D01*
X1839040Y-3561172D01*
X1839040Y-4938829D01*
X1836375Y-4941489D01*
X1836375Y-4722897D01*
X1823255Y-4691145D01*
X1810960Y-4678828D01*
X1810960Y-3303178D01*
X1819170Y-3294983D01*
X1832345Y-3263253D01*
X1832375Y-3228897D01*
X1819255Y-3197145D01*
X1810960Y-3188835D01*
X1810960Y-2331171D01*
X1823170Y-2318983D01*
X1836345Y-2287253D01*
X1836375Y-2252897D01*
X1823255Y-2221145D01*
X1798983Y-2196830D01*
X1767253Y-2183655D01*
X1732897Y-2183625D01*
X1701145Y-2196745D01*
X1676830Y-2221017D01*
X1663655Y-2252747D01*
X1663625Y-2287103D01*
X1676745Y-2318855D01*
X1689040Y-2331172D01*
X1689040Y-3180836D01*
X1672830Y-3197017D01*
X1660960Y-3225604D01*
X1660960Y-3041171D01*
X1673170Y-3028983D01*
X1686345Y-2997253D01*
X1686375Y-2962897D01*
X1673255Y-2931145D01*
X1660960Y-2918828D01*
X1660960Y-2161171D01*
X1673170Y-2148983D01*
X1686345Y-2117253D01*
X1686375Y-2082897D01*
X1673255Y-2051145D01*
X1648983Y-2026830D01*
X1617253Y-2013655D01*
X1582897Y-2013625D01*
X1551145Y-2026745D01*
X1526830Y-2051017D01*
X1513655Y-2082747D01*
X1513625Y-2117103D01*
X1526745Y-2148855D01*
X1539040Y-2161172D01*
X1539040Y-2918829D01*
X1526830Y-2931017D01*
X1513655Y-2962747D01*
X1513625Y-2997103D01*
X1526745Y-3028855D01*
X1539040Y-3041172D01*
X1539040Y-4428829D01*
X1526830Y-4441017D01*
X1513655Y-4472747D01*
X1513625Y-4507103D01*
X1526745Y-4538855D01*
X1551017Y-4563170D01*
X1582747Y-4576345D01*
X1617103Y-4576375D01*
X1648855Y-4563255D01*
X1673170Y-4538983D01*
X1686345Y-4507253D01*
X1686375Y-4472897D01*
X1673255Y-4441145D01*
X1660960Y-4428828D01*
X1660960Y-3266334D01*
X1672745Y-3294855D01*
X1689040Y-3311179D01*
X1689040Y-4678829D01*
X1676830Y-4691017D01*
X1663655Y-4722747D01*
X1663625Y-4757103D01*
X1676745Y-4788855D01*
X1701017Y-4813170D01*
X1732747Y-4826345D01*
X1767103Y-4826375D01*
X1798855Y-4813255D01*
X1823170Y-4788983D01*
X1836345Y-4757253D01*
X1836375Y-4722897D01*
X1836375Y-4941489D01*
X1826830Y-4951017D01*
X1813655Y-4982747D01*
X1813625Y-5017103D01*
X1826745Y-5048855D01*
X1851017Y-5073170D01*
X1882747Y-5086345D01*
X1917103Y-5086375D01*
X1948855Y-5073255D01*
X1973170Y-5048983D01*
X1986345Y-5017253D01*
X1986375Y-4982897D01*
X1973255Y-4951145D01*
X1960960Y-4938828D01*
X1960960Y-3561171D01*
X1973170Y-3548983D01*
X1986345Y-3517253D01*
X1986375Y-3482897D01*
X1973255Y-3451145D01*
X1960960Y-3438828D01*
X1960960Y-2516517D01*
X1968855Y-2513255D01*
X1993170Y-2488983D01*
X2006345Y-2457253D01*
X2006375Y-2422897D01*
X2006375Y-5469840D01*
X1126257Y-5469840D01*
X1126257Y-5090000D01*
X1126257Y-4910000D01*
X1126257Y-3590000D01*
X1126257Y-3410000D01*
X1126257Y-2090000D01*
X1126257Y-1910000D01*
X1125582Y-1906522D01*
X1125582Y-1721134D01*
X1125582Y-1467134D01*
X1106507Y-1420969D01*
X1071217Y-1385618D01*
X1025085Y-1366462D01*
X975134Y-1366418D01*
X928969Y-1385493D01*
X893617Y-1420783D01*
X874462Y-1466915D01*
X874418Y-1516866D01*
X893493Y-1563031D01*
X928783Y-1598382D01*
X974915Y-1617538D01*
X1024866Y-1617582D01*
X1071031Y-1598507D01*
X1106383Y-1563217D01*
X1125538Y-1517085D01*
X1125582Y-1467134D01*
X1125582Y-1721134D01*
X1106507Y-1674969D01*
X1071217Y-1639617D01*
X1025085Y-1620462D01*
X975134Y-1620418D01*
X928969Y-1639493D01*
X893617Y-1674783D01*
X874462Y-1720915D01*
X874418Y-1770866D01*
X893493Y-1817031D01*
X928783Y-1852382D01*
X974915Y-1871538D01*
X1024866Y-1871582D01*
X1071031Y-1852507D01*
X1106383Y-1817217D01*
X1125538Y-1771085D01*
X1125582Y-1721134D01*
X1125582Y-1906522D01*
X1123626Y-1896441D01*
X1115798Y-1884524D01*
X1103980Y-1876547D01*
X1090000Y-1873743D01*
X910000Y-1873743D01*
X896441Y-1876374D01*
X884524Y-1884202D01*
X876547Y-1896020D01*
X873743Y-1910000D01*
X873743Y-2090000D01*
X876374Y-2103559D01*
X884202Y-2115476D01*
X896020Y-2123453D01*
X910000Y-2126257D01*
X1090000Y-2126257D01*
X1103559Y-2123626D01*
X1115476Y-2115798D01*
X1123453Y-2103980D01*
X1126257Y-2090000D01*
X1126257Y-3410000D01*
X1125582Y-3406522D01*
X1125582Y-3221134D01*
X1125582Y-2967134D01*
X1106507Y-2920969D01*
X1071217Y-2885617D01*
X1025085Y-2866462D01*
X975134Y-2866418D01*
X928969Y-2885493D01*
X893617Y-2920783D01*
X874462Y-2966915D01*
X874418Y-3016866D01*
X893493Y-3063031D01*
X928783Y-3098382D01*
X974915Y-3117538D01*
X1024866Y-3117582D01*
X1071031Y-3098507D01*
X1106383Y-3063217D01*
X1125538Y-3017085D01*
X1125582Y-2967134D01*
X1125582Y-3221134D01*
X1106507Y-3174969D01*
X1071217Y-3139617D01*
X1025085Y-3120462D01*
X975134Y-3120418D01*
X928969Y-3139493D01*
X893617Y-3174783D01*
X874462Y-3220915D01*
X874418Y-3270866D01*
X893493Y-3317031D01*
X928783Y-3352382D01*
X974915Y-3371538D01*
X1024866Y-3371582D01*
X1071031Y-3352507D01*
X1106383Y-3317217D01*
X1125538Y-3271085D01*
X1125582Y-3221134D01*
X1125582Y-3406522D01*
X1123626Y-3396441D01*
X1115798Y-3384524D01*
X1103980Y-3376547D01*
X1090000Y-3373743D01*
X910000Y-3373743D01*
X896441Y-3376374D01*
X884524Y-3384202D01*
X876547Y-3396020D01*
X873743Y-3410000D01*
X873743Y-3590000D01*
X876374Y-3603559D01*
X884202Y-3615476D01*
X896020Y-3623453D01*
X910000Y-3626257D01*
X1090000Y-3626257D01*
X1103559Y-3623626D01*
X1115476Y-3615798D01*
X1123453Y-3603980D01*
X1126257Y-3590000D01*
X1126257Y-4910000D01*
X1125582Y-4906522D01*
X1125582Y-4721134D01*
X1125582Y-4467134D01*
X1106507Y-4420969D01*
X1071217Y-4385618D01*
X1025085Y-4366462D01*
X975134Y-4366418D01*
X928969Y-4385493D01*
X893617Y-4420783D01*
X874462Y-4466915D01*
X874418Y-4516866D01*
X893493Y-4563031D01*
X928783Y-4598383D01*
X974915Y-4617538D01*
X1024866Y-4617582D01*
X1071031Y-4598507D01*
X1106383Y-4563217D01*
X1125538Y-4517085D01*
X1125582Y-4467134D01*
X1125582Y-4721134D01*
X1106507Y-4674969D01*
X1071217Y-4639618D01*
X1025085Y-4620462D01*
X975134Y-4620418D01*
X928969Y-4639493D01*
X893617Y-4674783D01*
X874462Y-4720915D01*
X874418Y-4770866D01*
X893493Y-4817031D01*
X928783Y-4852383D01*
X974915Y-4871538D01*
X1024866Y-4871582D01*
X1071031Y-4852507D01*
X1106383Y-4817217D01*
X1125538Y-4771085D01*
X1125582Y-4721134D01*
X1125582Y-4906522D01*
X1123626Y-4896441D01*
X1115798Y-4884524D01*
X1103980Y-4876547D01*
X1090000Y-4873743D01*
X910000Y-4873743D01*
X896441Y-4876374D01*
X884524Y-4884202D01*
X876547Y-4896020D01*
X873743Y-4910000D01*
X873743Y-5090000D01*
X876374Y-5103559D01*
X884202Y-5115476D01*
X896020Y-5123453D01*
X910000Y-5126257D01*
X1090000Y-5126257D01*
X1103559Y-5123626D01*
X1115476Y-5115798D01*
X1123453Y-5103980D01*
X1126257Y-5090000D01*
X1126257Y-5469840D01*
X410160Y-5469840D01*
X410160Y-70160D01*
X6109802Y-70160D01*
X6109802Y-70160D01*
G37*
X6109802Y-70160D02*
X6089877Y-5469840D01*
X5771258Y-5469840D01*
X5771258Y-500169D01*
X5770582Y-477819D01*
X5770582Y-200134D01*
X5751507Y-153969D01*
X5716217Y-118617D01*
X5670085Y-99462D01*
X5620134Y-99418D01*
X5573969Y-118493D01*
X5538618Y-153783D01*
X5519462Y-199915D01*
X5519418Y-249866D01*
X5538493Y-296031D01*
X5573783Y-331383D01*
X5619915Y-350538D01*
X5669866Y-350582D01*
X5716031Y-331507D01*
X5751382Y-296217D01*
X5770538Y-250085D01*
X5770582Y-200134D01*
X5770582Y-477819D01*
X5769748Y-450241D01*
X5753546Y-411125D01*
X5735289Y-401283D01*
X5722716Y-413856D01*
X5722716Y-388711D01*
X5712874Y-370454D01*
X5666169Y-352742D01*
X5616241Y-354252D01*
X5577126Y-370454D01*
X5567284Y-388711D01*
X5645000Y-466428D01*
X5722716Y-388711D01*
X5722716Y-413856D01*
X5657572Y-479000D01*
X5735289Y-556717D01*
X5753546Y-546875D01*
X5771258Y-500169D01*
X5771258Y-5469840D01*
X5722716Y-5469840D01*
X5722716Y-569289D01*
X5645000Y-491572D01*
X5632428Y-504145D01*
X5632428Y-479000D01*
X5554711Y-401283D01*
X5536454Y-411125D01*
X5518742Y-457831D01*
X5520252Y-507759D01*
X5536454Y-546875D01*
X5554711Y-556717D01*
X5632428Y-479000D01*
X5632428Y-504145D01*
X5567284Y-569289D01*
X5577126Y-587546D01*
X5623831Y-605258D01*
X5673759Y-603748D01*
X5712874Y-587546D01*
X5722716Y-569289D01*
X5722716Y-5469840D01*
X5601257Y-5469840D01*
X5601257Y-4570000D01*
X5601257Y-4390000D01*
X5601257Y-3070000D01*
X5601257Y-2890000D01*
X5601257Y-1570000D01*
X5601257Y-1390000D01*
X5598626Y-1376441D01*
X5590798Y-1364524D01*
X5578980Y-1356547D01*
X5565000Y-1353743D01*
X5516582Y-1353743D01*
X5516582Y-454134D01*
X5516582Y-200134D01*
X5497507Y-153969D01*
X5462217Y-118617D01*
X5416085Y-99462D01*
X5366134Y-99418D01*
X5319969Y-118493D01*
X5284618Y-153783D01*
X5265462Y-199915D01*
X5265418Y-249866D01*
X5284493Y-296031D01*
X5319783Y-331383D01*
X5365915Y-350538D01*
X5415866Y-350582D01*
X5462031Y-331507D01*
X5497383Y-296217D01*
X5516538Y-250085D01*
X5516582Y-200134D01*
X5516582Y-454134D01*
X5497507Y-407969D01*
X5462217Y-372617D01*
X5416085Y-353462D01*
X5366134Y-353418D01*
X5319969Y-372493D01*
X5284618Y-407783D01*
X5265462Y-453915D01*
X5265418Y-503866D01*
X5284493Y-550031D01*
X5319783Y-585383D01*
X5365915Y-604538D01*
X5415866Y-604582D01*
X5462031Y-585507D01*
X5497383Y-550217D01*
X5516538Y-504085D01*
X5516582Y-454134D01*
X5516582Y-1353743D01*
X5385000Y-1353743D01*
X5371441Y-1356374D01*
X5359524Y-1364202D01*
X5351547Y-1376020D01*
X5348743Y-1390000D01*
X5348743Y-1570000D01*
X5351374Y-1583559D01*
X5359202Y-1595476D01*
X5371020Y-1603453D01*
X5385000Y-1606257D01*
X5565000Y-1606257D01*
X5578559Y-1603626D01*
X5590476Y-1595798D01*
X5598453Y-1583980D01*
X5601257Y-1570000D01*
X5601257Y-2890000D01*
X5600582Y-2886522D01*
X5600582Y-1963134D01*
X5600582Y-1709134D01*
X5581507Y-1662969D01*
X5546217Y-1627617D01*
X5500085Y-1608462D01*
X5450134Y-1608418D01*
X5403969Y-1627493D01*
X5368618Y-1662783D01*
X5349462Y-1708915D01*
X5349418Y-1758866D01*
X5368493Y-1805031D01*
X5403783Y-1840382D01*
X5449915Y-1859538D01*
X5499866Y-1859582D01*
X5546031Y-1840507D01*
X5581383Y-1805217D01*
X5600538Y-1759085D01*
X5600582Y-1709134D01*
X5600582Y-1963134D01*
X5581507Y-1916969D01*
X5546217Y-1881617D01*
X5500085Y-1862462D01*
X5450134Y-1862418D01*
X5403969Y-1881493D01*
X5368618Y-1916783D01*
X5349462Y-1962915D01*
X5349418Y-2012866D01*
X5368493Y-2059031D01*
X5403783Y-2094382D01*
X5449915Y-2113538D01*
X5499866Y-2113582D01*
X5546031Y-2094507D01*
X5581383Y-2059217D01*
X5600538Y-2013085D01*
X5600582Y-1963134D01*
X5600582Y-2886522D01*
X5598626Y-2876441D01*
X5590798Y-2864524D01*
X5578980Y-2856547D01*
X5565000Y-2853743D01*
X5385000Y-2853743D01*
X5371441Y-2856374D01*
X5359524Y-2864202D01*
X5351547Y-2876020D01*
X5348743Y-2890000D01*
X5348743Y-3070000D01*
X5351374Y-3083559D01*
X5359202Y-3095476D01*
X5371020Y-3103453D01*
X5385000Y-3106257D01*
X5565000Y-3106257D01*
X5578559Y-3103626D01*
X5590476Y-3095798D01*
X5598453Y-3083980D01*
X5601257Y-3070000D01*
X5601257Y-4390000D01*
X5600582Y-4386522D01*
X5600582Y-3463134D01*
X5600582Y-3209134D01*
X5581507Y-3162969D01*
X5546217Y-3127617D01*
X5500085Y-3108462D01*
X5450134Y-3108418D01*
X5403969Y-3127493D01*
X5368618Y-3162783D01*
X5349462Y-3208915D01*
X5349418Y-3258866D01*
X5368493Y-3305031D01*
X5403783Y-3340382D01*
X5449915Y-3359538D01*
X5499866Y-3359582D01*
X5546031Y-3340507D01*
X5581383Y-3305217D01*
X5600538Y-3259085D01*
X5600582Y-3209134D01*
X5600582Y-3463134D01*
X5581507Y-3416969D01*
X5546217Y-3381617D01*
X5500085Y-3362462D01*
X5450134Y-3362418D01*
X5403969Y-3381493D01*
X5368618Y-3416783D01*
X5349462Y-3462915D01*
X5349418Y-3512866D01*
X5368493Y-3559031D01*
X5403783Y-3594382D01*
X5449915Y-3613538D01*
X5499866Y-3613582D01*
X5546031Y-3594507D01*
X5581383Y-3559217D01*
X5600538Y-3513085D01*
X5600582Y-3463134D01*
X5600582Y-4386522D01*
X5598626Y-4376441D01*
X5590798Y-4364524D01*
X5578980Y-4356547D01*
X5565000Y-4353743D01*
X5385000Y-4353743D01*
X5371441Y-4356374D01*
X5359524Y-4364202D01*
X5351547Y-4376020D01*
X5348743Y-4390000D01*
X5348743Y-4570000D01*
X5351374Y-4583559D01*
X5359202Y-4595476D01*
X5371020Y-4603453D01*
X5385000Y-4606257D01*
X5565000Y-4606257D01*
X5578559Y-4603626D01*
X5590476Y-4595798D01*
X5598453Y-4583980D01*
X5601257Y-4570000D01*
X5601257Y-5469840D01*
X5600582Y-5469840D01*
X5600582Y-4963134D01*
X5600582Y-4709134D01*
X5581507Y-4662969D01*
X5546217Y-4627618D01*
X5500085Y-4608462D01*
X5450134Y-4608418D01*
X5403969Y-4627493D01*
X5368618Y-4662783D01*
X5349462Y-4708915D01*
X5349418Y-4758866D01*
X5368493Y-4805031D01*
X5403783Y-4840383D01*
X5449915Y-4859538D01*
X5499866Y-4859582D01*
X5546031Y-4840507D01*
X5581383Y-4805217D01*
X5600538Y-4759085D01*
X5600582Y-4709134D01*
X5600582Y-4963134D01*
X5581507Y-4916969D01*
X5546217Y-4881618D01*
X5500085Y-4862462D01*
X5450134Y-4862418D01*
X5403969Y-4881493D01*
X5368618Y-4916783D01*
X5349462Y-4962915D01*
X5349418Y-5012866D01*
X5368493Y-5059031D01*
X5403783Y-5094383D01*
X5449915Y-5113538D01*
X5499866Y-5113582D01*
X5546031Y-5094507D01*
X5581383Y-5059217D01*
X5600538Y-5013085D01*
X5600582Y-4963134D01*
X5600582Y-5469840D01*
X5345024Y-5469840D01*
X5345024Y-834155D01*
X5332869Y-804737D01*
X5310381Y-782210D01*
X5280985Y-770004D01*
X5262582Y-769988D01*
X5262582Y-454134D01*
X5262582Y-200134D01*
X5243507Y-153969D01*
X5208217Y-118617D01*
X5162085Y-99462D01*
X5112134Y-99418D01*
X5065969Y-118493D01*
X5030618Y-153783D01*
X5011462Y-199915D01*
X5011418Y-249866D01*
X5030493Y-296031D01*
X5065783Y-331383D01*
X5111915Y-350538D01*
X5161866Y-350582D01*
X5208031Y-331507D01*
X5243383Y-296217D01*
X5262538Y-250085D01*
X5262582Y-200134D01*
X5262582Y-454134D01*
X5243507Y-407969D01*
X5208217Y-372617D01*
X5162085Y-353462D01*
X5112134Y-353418D01*
X5065969Y-372493D01*
X5030618Y-407783D01*
X5011462Y-453915D01*
X5011418Y-503866D01*
X5030493Y-550031D01*
X5065783Y-585383D01*
X5111915Y-604538D01*
X5161866Y-604582D01*
X5208031Y-585507D01*
X5243383Y-550217D01*
X5262538Y-504085D01*
X5262582Y-454134D01*
X5262582Y-769988D01*
X5249155Y-769976D01*
X5219737Y-782131D01*
X5197594Y-804236D01*
X5078265Y-804236D01*
X5089996Y-775985D01*
X5090024Y-744155D01*
X5077869Y-714737D01*
X5055381Y-692210D01*
X5025985Y-680004D01*
X5009258Y-679989D01*
X5009258Y-246169D01*
X5007748Y-196241D01*
X4991546Y-157126D01*
X4973289Y-147284D01*
X4960717Y-159856D01*
X4960717Y-134711D01*
X4950875Y-116454D01*
X4904169Y-98742D01*
X4854241Y-100252D01*
X4815126Y-116454D01*
X4805284Y-134711D01*
X4883000Y-212428D01*
X4960717Y-134711D01*
X4960717Y-159856D01*
X4895572Y-225000D01*
X4973289Y-302717D01*
X4991546Y-292875D01*
X5009258Y-246169D01*
X5009258Y-679989D01*
X4994155Y-679976D01*
X4964737Y-692131D01*
X4942550Y-714280D01*
X4870378Y-714280D01*
X4915329Y-669329D01*
X4925240Y-654496D01*
X4928720Y-637000D01*
X4928720Y-595965D01*
X4954031Y-585507D01*
X4989383Y-550217D01*
X5008538Y-504085D01*
X5008582Y-454134D01*
X4989507Y-407969D01*
X4960717Y-379128D01*
X4960717Y-315289D01*
X4883000Y-237572D01*
X4870428Y-250145D01*
X4870428Y-225000D01*
X4792711Y-147284D01*
X4774454Y-157126D01*
X4756742Y-203831D01*
X4758252Y-253759D01*
X4774454Y-292875D01*
X4792711Y-302717D01*
X4870428Y-225000D01*
X4870428Y-250145D01*
X4805284Y-315289D01*
X4815126Y-333546D01*
X4861831Y-351258D01*
X4911759Y-349748D01*
X4950875Y-333546D01*
X4960717Y-315289D01*
X4960717Y-379128D01*
X4954217Y-372617D01*
X4908085Y-353462D01*
X4858134Y-353418D01*
X4811969Y-372493D01*
X4776618Y-407783D01*
X4757462Y-453915D01*
X4757418Y-503866D01*
X4776493Y-550031D01*
X4811783Y-585383D01*
X4837280Y-595970D01*
X4837280Y-618062D01*
X4811062Y-644280D01*
X4754582Y-644280D01*
X4754582Y-454134D01*
X4754582Y-200134D01*
X4735507Y-153969D01*
X4700217Y-118617D01*
X4654085Y-99462D01*
X4604134Y-99418D01*
X4557969Y-118493D01*
X4522618Y-153783D01*
X4503462Y-199915D01*
X4503418Y-249866D01*
X4522493Y-296031D01*
X4557783Y-331383D01*
X4603915Y-350538D01*
X4653866Y-350582D01*
X4700031Y-331507D01*
X4735383Y-296217D01*
X4754538Y-250085D01*
X4754582Y-200134D01*
X4754582Y-454134D01*
X4735507Y-407969D01*
X4700217Y-372617D01*
X4654085Y-353462D01*
X4604134Y-353418D01*
X4557969Y-372493D01*
X4522618Y-407783D01*
X4503462Y-453915D01*
X4503418Y-503866D01*
X4522493Y-550031D01*
X4557783Y-585383D01*
X4603915Y-604538D01*
X4653866Y-604582D01*
X4700031Y-585507D01*
X4735383Y-550217D01*
X4754538Y-504085D01*
X4754582Y-454134D01*
X4754582Y-644280D01*
X4501258Y-644280D01*
X4501258Y-246169D01*
X4499748Y-196241D01*
X4483546Y-157126D01*
X4465289Y-147284D01*
X4452717Y-159856D01*
X4452717Y-134711D01*
X4442875Y-116454D01*
X4396169Y-98742D01*
X4346241Y-100252D01*
X4307126Y-116454D01*
X4297284Y-134711D01*
X4375000Y-212428D01*
X4452717Y-134711D01*
X4452717Y-159856D01*
X4387572Y-225000D01*
X4465289Y-302717D01*
X4483546Y-292875D01*
X4501258Y-246169D01*
X4501258Y-644280D01*
X4500582Y-644280D01*
X4500582Y-454134D01*
X4481507Y-407969D01*
X4452717Y-379128D01*
X4452717Y-315289D01*
X4375000Y-237572D01*
X4362428Y-250145D01*
X4362428Y-225000D01*
X4284711Y-147284D01*
X4266454Y-157126D01*
X4248742Y-203831D01*
X4250252Y-253759D01*
X4266454Y-292875D01*
X4284711Y-302717D01*
X4362428Y-225000D01*
X4362428Y-250145D01*
X4297284Y-315289D01*
X4307126Y-333546D01*
X4353831Y-351258D01*
X4403759Y-349748D01*
X4442875Y-333546D01*
X4452717Y-315289D01*
X4452717Y-379128D01*
X4446217Y-372617D01*
X4400085Y-353462D01*
X4350134Y-353418D01*
X4303969Y-372493D01*
X4268618Y-407783D01*
X4249462Y-453915D01*
X4249418Y-503866D01*
X4268493Y-550031D01*
X4303783Y-585383D01*
X4349915Y-604538D01*
X4399866Y-604582D01*
X4446031Y-585507D01*
X4481383Y-550217D01*
X4500538Y-504085D01*
X4500582Y-454134D01*
X4500582Y-644280D01*
X4246582Y-644280D01*
X4246582Y-454134D01*
X4246582Y-200134D01*
X4227507Y-153969D01*
X4192217Y-118617D01*
X4146085Y-99462D01*
X4096134Y-99418D01*
X4049969Y-118493D01*
X4014617Y-153783D01*
X3995462Y-199915D01*
X3995418Y-249866D01*
X4014493Y-296031D01*
X4049783Y-331383D01*
X4095915Y-350538D01*
X4145866Y-350582D01*
X4192031Y-331507D01*
X4227383Y-296217D01*
X4246538Y-250085D01*
X4246582Y-200134D01*
X4246582Y-454134D01*
X4227507Y-407969D01*
X4192217Y-372617D01*
X4146085Y-353462D01*
X4096134Y-353418D01*
X4049969Y-372493D01*
X4014617Y-407783D01*
X3995462Y-453915D01*
X3995418Y-503866D01*
X4014493Y-550031D01*
X4049783Y-585383D01*
X4095915Y-604538D01*
X4145866Y-604582D01*
X4192031Y-585507D01*
X4227383Y-550217D01*
X4246538Y-504085D01*
X4246582Y-454134D01*
X4246582Y-644280D01*
X3993258Y-644280D01*
X3993258Y-500169D01*
X3992582Y-477819D01*
X3992582Y-200134D01*
X3973507Y-153969D01*
X3938217Y-118617D01*
X3892085Y-99462D01*
X3842134Y-99418D01*
X3795969Y-118493D01*
X3760617Y-153783D01*
X3741462Y-199915D01*
X3741418Y-249866D01*
X3760493Y-296031D01*
X3795783Y-331383D01*
X3841915Y-350538D01*
X3891866Y-350582D01*
X3938031Y-331507D01*
X3973382Y-296217D01*
X3992538Y-250085D01*
X3992582Y-200134D01*
X3992582Y-477819D01*
X3991748Y-450241D01*
X3975546Y-411125D01*
X3957289Y-401283D01*
X3944716Y-413856D01*
X3944716Y-388711D01*
X3934874Y-370454D01*
X3888169Y-352742D01*
X3838241Y-354252D01*
X3799125Y-370454D01*
X3789283Y-388711D01*
X3867000Y-466428D01*
X3944716Y-388711D01*
X3944716Y-413856D01*
X3879572Y-479000D01*
X3957289Y-556717D01*
X3975546Y-546875D01*
X3993258Y-500169D01*
X3993258Y-644280D01*
X3944716Y-644280D01*
X3944716Y-569289D01*
X3867000Y-491572D01*
X3854428Y-504145D01*
X3854428Y-479000D01*
X3776711Y-401283D01*
X3758454Y-411125D01*
X3740742Y-457831D01*
X3742252Y-507759D01*
X3758454Y-546875D01*
X3776711Y-556717D01*
X3854428Y-479000D01*
X3854428Y-504145D01*
X3789283Y-569289D01*
X3799125Y-587546D01*
X3845831Y-605258D01*
X3895759Y-603748D01*
X3934874Y-587546D01*
X3944716Y-569289D01*
X3944716Y-644280D01*
X3738582Y-644280D01*
X3738582Y-454134D01*
X3738582Y-200134D01*
X3719507Y-153969D01*
X3684217Y-118617D01*
X3638085Y-99462D01*
X3588134Y-99418D01*
X3541969Y-118493D01*
X3506617Y-153783D01*
X3487462Y-199915D01*
X3487418Y-249866D01*
X3506493Y-296031D01*
X3541783Y-331383D01*
X3587915Y-350538D01*
X3637866Y-350582D01*
X3684031Y-331507D01*
X3719382Y-296217D01*
X3738538Y-250085D01*
X3738582Y-200134D01*
X3738582Y-454134D01*
X3719507Y-407969D01*
X3684217Y-372617D01*
X3638085Y-353462D01*
X3588134Y-353418D01*
X3541969Y-372493D01*
X3506617Y-407783D01*
X3487462Y-453915D01*
X3487418Y-503866D01*
X3506493Y-550031D01*
X3541783Y-585383D01*
X3587915Y-604538D01*
X3637866Y-604582D01*
X3684031Y-585507D01*
X3719382Y-550217D01*
X3738538Y-504085D01*
X3738582Y-454134D01*
X3738582Y-644280D01*
X3484582Y-644280D01*
X3484582Y-454134D01*
X3484582Y-200134D01*
X3465507Y-153969D01*
X3430217Y-118617D01*
X3384085Y-99462D01*
X3334134Y-99418D01*
X3287969Y-118493D01*
X3252617Y-153783D01*
X3233462Y-199915D01*
X3233418Y-249866D01*
X3252493Y-296031D01*
X3287783Y-331383D01*
X3333915Y-350538D01*
X3383866Y-350582D01*
X3430031Y-331507D01*
X3465382Y-296217D01*
X3484538Y-250085D01*
X3484582Y-200134D01*
X3484582Y-454134D01*
X3465507Y-407969D01*
X3430217Y-372617D01*
X3384085Y-353462D01*
X3334134Y-353418D01*
X3287969Y-372493D01*
X3252617Y-407783D01*
X3233462Y-453915D01*
X3233418Y-503866D01*
X3252493Y-550031D01*
X3287783Y-585383D01*
X3333915Y-604538D01*
X3383866Y-604582D01*
X3430031Y-585507D01*
X3465382Y-550217D01*
X3484538Y-504085D01*
X3484582Y-454134D01*
X3484582Y-644280D01*
X3231258Y-644280D01*
X3231258Y-246169D01*
X3229748Y-196241D01*
X3213546Y-157126D01*
X3195289Y-147284D01*
X3182716Y-159856D01*
X3182716Y-134711D01*
X3172874Y-116454D01*
X3126169Y-98742D01*
X3076241Y-100252D01*
X3037125Y-116454D01*
X3027283Y-134711D01*
X3105000Y-212428D01*
X3182716Y-134711D01*
X3182716Y-159856D01*
X3117572Y-225000D01*
X3195289Y-302717D01*
X3213546Y-292875D01*
X3231258Y-246169D01*
X3231258Y-644280D01*
X3230582Y-644280D01*
X3230582Y-454134D01*
X3211507Y-407969D01*
X3182716Y-379128D01*
X3182716Y-315289D01*
X3105000Y-237572D01*
X3092428Y-250145D01*
X3092428Y-225000D01*
X3014711Y-147284D01*
X2996454Y-157126D01*
X2978742Y-203831D01*
X2980252Y-253759D01*
X2996454Y-292875D01*
X3014711Y-302717D01*
X3092428Y-225000D01*
X3092428Y-250145D01*
X3027283Y-315289D01*
X3037125Y-333546D01*
X3083831Y-351258D01*
X3133759Y-349748D01*
X3172874Y-333546D01*
X3182716Y-315289D01*
X3182716Y-379128D01*
X3176217Y-372617D01*
X3130085Y-353462D01*
X3080134Y-353418D01*
X3033969Y-372493D01*
X2998617Y-407783D01*
X2979462Y-453915D01*
X2979418Y-503866D01*
X2998493Y-550031D01*
X3033783Y-585383D01*
X3079915Y-604538D01*
X3129866Y-604582D01*
X3176031Y-585507D01*
X3211382Y-550217D01*
X3230538Y-504085D01*
X3230582Y-454134D01*
X3230582Y-644280D01*
X2976582Y-644280D01*
X2976582Y-454134D01*
X2976582Y-200134D01*
X2957507Y-153969D01*
X2922217Y-118617D01*
X2876085Y-99462D01*
X2826134Y-99418D01*
X2779969Y-118493D01*
X2744618Y-153783D01*
X2725462Y-199915D01*
X2725418Y-249866D01*
X2744493Y-296031D01*
X2779783Y-331383D01*
X2825915Y-350538D01*
X2875866Y-350582D01*
X2922031Y-331507D01*
X2957382Y-296217D01*
X2976538Y-250085D01*
X2976582Y-200134D01*
X2976582Y-454134D01*
X2957507Y-407969D01*
X2922217Y-372617D01*
X2876085Y-353462D01*
X2826134Y-353418D01*
X2779969Y-372493D01*
X2744618Y-407783D01*
X2725462Y-453915D01*
X2725418Y-503866D01*
X2744493Y-550031D01*
X2779783Y-585383D01*
X2825915Y-604538D01*
X2875866Y-604582D01*
X2922031Y-585507D01*
X2957382Y-550217D01*
X2976538Y-504085D01*
X2976582Y-454134D01*
X2976582Y-644280D01*
X2722582Y-644280D01*
X2722582Y-454134D01*
X2722582Y-200134D01*
X2703507Y-153969D01*
X2668217Y-118617D01*
X2622085Y-99462D01*
X2572134Y-99418D01*
X2525969Y-118493D01*
X2490618Y-153783D01*
X2471462Y-199915D01*
X2471418Y-249866D01*
X2490493Y-296031D01*
X2525783Y-331383D01*
X2571915Y-350538D01*
X2621866Y-350582D01*
X2668031Y-331507D01*
X2703383Y-296217D01*
X2722538Y-250085D01*
X2722582Y-200134D01*
X2722582Y-454134D01*
X2703507Y-407969D01*
X2668217Y-372617D01*
X2622085Y-353462D01*
X2572134Y-353418D01*
X2525969Y-372493D01*
X2490618Y-407783D01*
X2471462Y-453915D01*
X2471418Y-503866D01*
X2490493Y-550031D01*
X2525783Y-585383D01*
X2571915Y-604538D01*
X2621866Y-604582D01*
X2668031Y-585507D01*
X2703383Y-550217D01*
X2722538Y-504085D01*
X2722582Y-454134D01*
X2722582Y-644280D01*
X2469258Y-644280D01*
X2469258Y-246169D01*
X2467748Y-196241D01*
X2451546Y-157126D01*
X2433289Y-147284D01*
X2420717Y-159856D01*
X2420717Y-134711D01*
X2410875Y-116454D01*
X2364169Y-98742D01*
X2314241Y-100252D01*
X2275126Y-116454D01*
X2265284Y-134711D01*
X2343000Y-212428D01*
X2420717Y-134711D01*
X2420717Y-159856D01*
X2355572Y-225000D01*
X2433289Y-302717D01*
X2451546Y-292875D01*
X2469258Y-246169D01*
X2469258Y-644280D01*
X2468582Y-644280D01*
X2468582Y-454134D01*
X2449507Y-407969D01*
X2420717Y-379128D01*
X2420717Y-315289D01*
X2343000Y-237572D01*
X2330428Y-250145D01*
X2330428Y-225000D01*
X2252711Y-147284D01*
X2234454Y-157126D01*
X2216742Y-203831D01*
X2218252Y-253759D01*
X2234454Y-292875D01*
X2252711Y-302717D01*
X2330428Y-225000D01*
X2330428Y-250145D01*
X2265284Y-315289D01*
X2275126Y-333546D01*
X2321831Y-351258D01*
X2371759Y-349748D01*
X2410875Y-333546D01*
X2420717Y-315289D01*
X2420717Y-379128D01*
X2414217Y-372617D01*
X2368085Y-353462D01*
X2318134Y-353418D01*
X2271969Y-372493D01*
X2236618Y-407783D01*
X2217462Y-453915D01*
X2217418Y-503866D01*
X2236493Y-550031D01*
X2271783Y-585383D01*
X2317915Y-604538D01*
X2367866Y-604582D01*
X2414031Y-585507D01*
X2449383Y-550217D01*
X2468538Y-504085D01*
X2468582Y-454134D01*
X2468582Y-644280D01*
X2214582Y-644280D01*
X2214582Y-454134D01*
X2214582Y-200134D01*
X2195507Y-153969D01*
X2160217Y-118617D01*
X2114085Y-99462D01*
X2064134Y-99418D01*
X2017969Y-118493D01*
X1982617Y-153783D01*
X1963462Y-199915D01*
X1963418Y-249866D01*
X1982493Y-296031D01*
X2017783Y-331383D01*
X2063915Y-350538D01*
X2113866Y-350582D01*
X2160031Y-331507D01*
X2195383Y-296217D01*
X2214538Y-250085D01*
X2214582Y-200134D01*
X2214582Y-454134D01*
X2195507Y-407969D01*
X2160217Y-372617D01*
X2114085Y-353462D01*
X2064134Y-353418D01*
X2017969Y-372493D01*
X1982617Y-407783D01*
X1963462Y-453915D01*
X1963418Y-503866D01*
X1982493Y-550031D01*
X2017783Y-585383D01*
X2063915Y-604538D01*
X2113866Y-604582D01*
X2160031Y-585507D01*
X2195383Y-550217D01*
X2214538Y-504085D01*
X2214582Y-454134D01*
X2214582Y-644280D01*
X1961258Y-644280D01*
X1961258Y-500169D01*
X1960582Y-477819D01*
X1960582Y-200134D01*
X1941507Y-153969D01*
X1906217Y-118617D01*
X1860085Y-99462D01*
X1810134Y-99418D01*
X1763969Y-118493D01*
X1728617Y-153783D01*
X1709462Y-199915D01*
X1709418Y-249866D01*
X1728493Y-296031D01*
X1763783Y-331383D01*
X1809915Y-350538D01*
X1859866Y-350582D01*
X1906031Y-331507D01*
X1941382Y-296217D01*
X1960538Y-250085D01*
X1960582Y-200134D01*
X1960582Y-477819D01*
X1959748Y-450241D01*
X1943546Y-411125D01*
X1925289Y-401283D01*
X1912716Y-413856D01*
X1912716Y-388711D01*
X1902874Y-370454D01*
X1856169Y-352742D01*
X1806241Y-354252D01*
X1767125Y-370454D01*
X1757283Y-388711D01*
X1835000Y-466428D01*
X1912716Y-388711D01*
X1912716Y-413856D01*
X1847572Y-479000D01*
X1925289Y-556717D01*
X1943546Y-546875D01*
X1961258Y-500169D01*
X1961258Y-644280D01*
X1912716Y-644280D01*
X1912716Y-569289D01*
X1835000Y-491572D01*
X1822428Y-504145D01*
X1822428Y-479000D01*
X1744711Y-401283D01*
X1726454Y-411125D01*
X1708742Y-457831D01*
X1710252Y-507759D01*
X1726454Y-546875D01*
X1744711Y-556717D01*
X1822428Y-479000D01*
X1822428Y-504145D01*
X1757283Y-569289D01*
X1767125Y-587546D01*
X1813831Y-605258D01*
X1863759Y-603748D01*
X1902874Y-587546D01*
X1912716Y-569289D01*
X1912716Y-644280D01*
X1706582Y-644280D01*
X1706582Y-454134D01*
X1706582Y-200134D01*
X1687507Y-153969D01*
X1652217Y-118617D01*
X1606085Y-99462D01*
X1556134Y-99418D01*
X1509969Y-118493D01*
X1474617Y-153783D01*
X1455462Y-199915D01*
X1455418Y-249866D01*
X1474493Y-296031D01*
X1509783Y-331383D01*
X1555915Y-350538D01*
X1605866Y-350582D01*
X1652031Y-331507D01*
X1687382Y-296217D01*
X1706538Y-250085D01*
X1706582Y-200134D01*
X1706582Y-454134D01*
X1687507Y-407969D01*
X1652217Y-372617D01*
X1606085Y-353462D01*
X1556134Y-353418D01*
X1509969Y-372493D01*
X1474617Y-407783D01*
X1455462Y-453915D01*
X1455418Y-503866D01*
X1474493Y-550031D01*
X1509783Y-585383D01*
X1555915Y-604538D01*
X1605866Y-604582D01*
X1652031Y-585507D01*
X1687382Y-550217D01*
X1706538Y-504085D01*
X1706582Y-454134D01*
X1706582Y-644280D01*
X1527412Y-644280D01*
X1505381Y-622210D01*
X1475985Y-610004D01*
X1453258Y-609984D01*
X1453258Y-246169D01*
X1451748Y-196241D01*
X1435546Y-157126D01*
X1417289Y-147284D01*
X1404716Y-159856D01*
X1404716Y-134711D01*
X1394875Y-116454D01*
X1348169Y-98742D01*
X1298241Y-100252D01*
X1259126Y-116454D01*
X1249284Y-134711D01*
X1327000Y-212428D01*
X1404716Y-134711D01*
X1404716Y-159856D01*
X1339572Y-225000D01*
X1417289Y-302717D01*
X1435546Y-292875D01*
X1453258Y-246169D01*
X1453258Y-609984D01*
X1452582Y-609983D01*
X1452582Y-454134D01*
X1433507Y-407969D01*
X1404716Y-379128D01*
X1404716Y-315289D01*
X1327000Y-237572D01*
X1314428Y-250145D01*
X1314428Y-225000D01*
X1236711Y-147284D01*
X1218454Y-157126D01*
X1200742Y-203831D01*
X1202252Y-253759D01*
X1218454Y-292875D01*
X1236711Y-302717D01*
X1314428Y-225000D01*
X1314428Y-250145D01*
X1249284Y-315289D01*
X1259126Y-333546D01*
X1305831Y-351258D01*
X1355759Y-349748D01*
X1394875Y-333546D01*
X1404716Y-315289D01*
X1404716Y-379128D01*
X1398217Y-372617D01*
X1352085Y-353462D01*
X1302134Y-353418D01*
X1255969Y-372493D01*
X1220618Y-407783D01*
X1201462Y-453915D01*
X1201418Y-503866D01*
X1220493Y-550031D01*
X1255783Y-585383D01*
X1301915Y-604538D01*
X1351866Y-604582D01*
X1398031Y-585507D01*
X1433382Y-550217D01*
X1452538Y-504085D01*
X1452582Y-454134D01*
X1452582Y-609983D01*
X1444155Y-609976D01*
X1414737Y-622131D01*
X1392210Y-644619D01*
X1380004Y-674015D01*
X1379976Y-705845D01*
X1392131Y-735263D01*
X1414619Y-757790D01*
X1444015Y-769996D01*
X1475814Y-770024D01*
X1470004Y-784015D01*
X1469976Y-815845D01*
X1482131Y-845263D01*
X1504619Y-867790D01*
X1534015Y-879996D01*
X1565845Y-880024D01*
X1595263Y-867869D01*
X1617790Y-845381D01*
X1629996Y-815985D01*
X1630001Y-810720D01*
X2579677Y-810720D01*
X2570004Y-834015D01*
X2569976Y-865845D01*
X2582131Y-895263D01*
X2604619Y-917790D01*
X2634015Y-929996D01*
X2665845Y-930024D01*
X2691996Y-919219D01*
X2690004Y-924015D01*
X2689976Y-955845D01*
X2702131Y-985263D01*
X2724619Y-1007790D01*
X2754015Y-1019996D01*
X2785845Y-1020024D01*
X2815263Y-1007869D01*
X2837494Y-985676D01*
X3351169Y-985676D01*
X3342210Y-994619D01*
X3330004Y-1024015D01*
X3329976Y-1055845D01*
X3342131Y-1085263D01*
X3364619Y-1107790D01*
X3394015Y-1119996D01*
X3425845Y-1120024D01*
X3455263Y-1107869D01*
X3477450Y-1085720D01*
X4432588Y-1085720D01*
X4454619Y-1107790D01*
X4484015Y-1119996D01*
X4515845Y-1120024D01*
X4545263Y-1107869D01*
X4567790Y-1085381D01*
X4579996Y-1055985D01*
X4580024Y-1024155D01*
X4567869Y-994737D01*
X4558823Y-985676D01*
X5067544Y-985676D01*
X5089619Y-1007790D01*
X5119015Y-1019996D01*
X5150845Y-1020024D01*
X5180263Y-1007869D01*
X5202790Y-985381D01*
X5214996Y-955985D01*
X5215024Y-924155D01*
X5207291Y-905440D01*
X5219619Y-917790D01*
X5249015Y-929996D01*
X5280845Y-930024D01*
X5310263Y-917869D01*
X5332790Y-895381D01*
X5344996Y-865985D01*
X5345024Y-834155D01*
X5345024Y-5469840D01*
X4186051Y-5469840D01*
X4186051Y-1666921D01*
X4176019Y-1642640D01*
X4157457Y-1624047D01*
X4133194Y-1613971D01*
X4106921Y-1613949D01*
X4082640Y-1623981D01*
X4072324Y-1634280D01*
X3647412Y-1634280D01*
X3625381Y-1612210D01*
X3595985Y-1600004D01*
X3564155Y-1599976D01*
X3534737Y-1612131D01*
X3512210Y-1634619D01*
X3500004Y-1664015D01*
X3499976Y-1695845D01*
X3512131Y-1725263D01*
X3534619Y-1747790D01*
X3564015Y-1759996D01*
X3595845Y-1760024D01*
X3625263Y-1747869D01*
X3647450Y-1725720D01*
X4072327Y-1725720D01*
X4082542Y-1735953D01*
X4106806Y-1746028D01*
X4133078Y-1746051D01*
X4157360Y-1736019D01*
X4175953Y-1717457D01*
X4186028Y-1693194D01*
X4186051Y-1666921D01*
X4186051Y-5469840D01*
X4076360Y-5469840D01*
X4076360Y-2330000D01*
X4069786Y-2296952D01*
X4051066Y-2268934D01*
X4035720Y-2258681D01*
X4035720Y-1947673D01*
X4045953Y-1937457D01*
X4056028Y-1913194D01*
X4056051Y-1886921D01*
X4046019Y-1862640D01*
X4027457Y-1844047D01*
X4003194Y-1833971D01*
X3976921Y-1833949D01*
X3952640Y-1843981D01*
X3934047Y-1862542D01*
X3923971Y-1886806D01*
X3923949Y-1913078D01*
X3933981Y-1937360D01*
X3944280Y-1947676D01*
X3944280Y-2243640D01*
X3860000Y-2243640D01*
X3320024Y-2243640D01*
X3320024Y-1634155D01*
X3307869Y-1604737D01*
X3285381Y-1582210D01*
X3255985Y-1570004D01*
X3224155Y-1569976D01*
X3194737Y-1582131D01*
X3172550Y-1604280D01*
X2817412Y-1604280D01*
X2795381Y-1582210D01*
X2765985Y-1570004D01*
X2734155Y-1569976D01*
X2704737Y-1582131D01*
X2682210Y-1604619D01*
X2670004Y-1634015D01*
X2669976Y-1665845D01*
X2682131Y-1695263D01*
X2704619Y-1717790D01*
X2734015Y-1729996D01*
X2765845Y-1730024D01*
X2795263Y-1717869D01*
X2817450Y-1695720D01*
X3172588Y-1695720D01*
X3194619Y-1717790D01*
X3224015Y-1729996D01*
X3255845Y-1730024D01*
X3285263Y-1717869D01*
X3307790Y-1695381D01*
X3319996Y-1665985D01*
X3320024Y-1634155D01*
X3320024Y-2243640D01*
X3155720Y-2243640D01*
X3155720Y-1926696D01*
X3157360Y-1926019D01*
X3175953Y-1907457D01*
X3186028Y-1883194D01*
X3186051Y-1856921D01*
X3176019Y-1832640D01*
X3157457Y-1814047D01*
X3133194Y-1803971D01*
X3106921Y-1803949D01*
X3082640Y-1813981D01*
X3064047Y-1832542D01*
X3053971Y-1856806D01*
X3053967Y-1861877D01*
X3046019Y-1842640D01*
X3027457Y-1824047D01*
X3003194Y-1813971D01*
X2976921Y-1813949D01*
X2952640Y-1823981D01*
X2934047Y-1842542D01*
X2926038Y-1861828D01*
X2926051Y-1846921D01*
X2916019Y-1822640D01*
X2897457Y-1804047D01*
X2873194Y-1793971D01*
X2846921Y-1793949D01*
X2822640Y-1803981D01*
X2804047Y-1822542D01*
X2793972Y-1846806D01*
X2793958Y-1861856D01*
X2786019Y-1842640D01*
X2767458Y-1824047D01*
X2743194Y-1813971D01*
X2716922Y-1813949D01*
X2692640Y-1823981D01*
X2674047Y-1842542D01*
X2663972Y-1866806D01*
X2663949Y-1893078D01*
X2673981Y-1917360D01*
X2674280Y-1917659D01*
X2674280Y-2243640D01*
X2500000Y-2243640D01*
X2465771Y-2243640D01*
X2316375Y-2094244D01*
X2316375Y-1072897D01*
X2309786Y-1056952D01*
X2303255Y-1041145D01*
X2278983Y-1016830D01*
X2247253Y-1003655D01*
X2212897Y-1003625D01*
X2212861Y-1003640D01*
X1198582Y-1003640D01*
X1198582Y-454134D01*
X1198582Y-200134D01*
X1179507Y-153969D01*
X1144217Y-118617D01*
X1098085Y-99462D01*
X1048134Y-99418D01*
X1001969Y-118493D01*
X966617Y-153783D01*
X947462Y-199915D01*
X947418Y-249866D01*
X966493Y-296031D01*
X1001783Y-331383D01*
X1047915Y-350538D01*
X1097866Y-350582D01*
X1144031Y-331507D01*
X1179383Y-296217D01*
X1198538Y-250085D01*
X1198582Y-200134D01*
X1198582Y-454134D01*
X1179507Y-407969D01*
X1144217Y-372617D01*
X1098085Y-353462D01*
X1048134Y-353418D01*
X1001969Y-372493D01*
X966617Y-407783D01*
X947462Y-453915D01*
X947418Y-503866D01*
X966493Y-550031D01*
X1001783Y-585383D01*
X1047915Y-604538D01*
X1097866Y-604582D01*
X1144031Y-585507D01*
X1179383Y-550217D01*
X1198538Y-504085D01*
X1198582Y-454134D01*
X1198582Y-1003640D01*
X1135771Y-1003640D01*
X945257Y-813125D01*
X945257Y-569000D01*
X945257Y-389000D01*
X944582Y-385522D01*
X944582Y-200134D01*
X925507Y-153969D01*
X890217Y-118617D01*
X844085Y-99462D01*
X794134Y-99418D01*
X747969Y-118493D01*
X712617Y-153783D01*
X693462Y-199915D01*
X693418Y-249866D01*
X712493Y-296031D01*
X747783Y-331383D01*
X793915Y-350538D01*
X843866Y-350582D01*
X890031Y-331507D01*
X925382Y-296217D01*
X944538Y-250085D01*
X944582Y-200134D01*
X944582Y-385522D01*
X942626Y-375441D01*
X934798Y-363524D01*
X922980Y-355547D01*
X909000Y-352743D01*
X729000Y-352743D01*
X715441Y-355374D01*
X703524Y-363202D01*
X695547Y-375020D01*
X692743Y-389000D01*
X692743Y-569000D01*
X695374Y-582559D01*
X703202Y-594476D01*
X715020Y-602453D01*
X729000Y-605257D01*
X909000Y-605257D01*
X922559Y-602626D01*
X934476Y-594798D01*
X942453Y-582980D01*
X945257Y-569000D01*
X945257Y-813125D01*
X941147Y-809016D01*
X928983Y-796830D01*
X897253Y-783655D01*
X862897Y-783625D01*
X831145Y-796745D01*
X806830Y-821017D01*
X793655Y-852747D01*
X793625Y-887103D01*
X806745Y-918855D01*
X831017Y-943170D01*
X831053Y-943185D01*
X1038934Y-1151066D01*
X1066952Y-1169786D01*
X1100000Y-1176360D01*
X2229925Y-1176360D01*
X2230000Y-1176360D01*
X2247103Y-1176375D01*
X2263049Y-1169786D01*
X2278855Y-1163255D01*
X2291066Y-1151066D01*
X2303170Y-1138983D01*
X2309786Y-1123049D01*
X2316345Y-1107253D01*
X2316360Y-1090000D01*
X2316375Y-1072897D01*
X2316375Y-2094244D01*
X1441066Y-1218934D01*
X1413048Y-1200214D01*
X1380000Y-1193640D01*
X975771Y-1193640D01*
X891147Y-1109016D01*
X878983Y-1096830D01*
X847253Y-1083655D01*
X812897Y-1083625D01*
X781145Y-1096745D01*
X756830Y-1121017D01*
X743655Y-1152747D01*
X743625Y-1187103D01*
X756745Y-1218855D01*
X781017Y-1243170D01*
X781053Y-1243185D01*
X878934Y-1341066D01*
X906951Y-1359786D01*
X940000Y-1366360D01*
X1344229Y-1366360D01*
X2368934Y-2391066D01*
X2368934Y-2391066D01*
X2396951Y-2409786D01*
X2396952Y-2409786D01*
X2402435Y-2410877D01*
X2430000Y-2416360D01*
X2454280Y-2416360D01*
X2454280Y-2542327D01*
X2444047Y-2552543D01*
X2433972Y-2576806D01*
X2433949Y-2603079D01*
X2443981Y-2627360D01*
X2462543Y-2645953D01*
X2486806Y-2656029D01*
X2513079Y-2656051D01*
X2537360Y-2646019D01*
X2555953Y-2627458D01*
X2566029Y-2603194D01*
X2566051Y-2576922D01*
X2556019Y-2552640D01*
X2545720Y-2542324D01*
X2545720Y-2416360D01*
X2720000Y-2416360D01*
X2860000Y-2416360D01*
X3000000Y-2416360D01*
X3110000Y-2416360D01*
X3814280Y-2416360D01*
X3814280Y-2702327D01*
X3804047Y-2712543D01*
X3793971Y-2736806D01*
X3793949Y-2763079D01*
X3803981Y-2787360D01*
X3822542Y-2805953D01*
X3846806Y-2816028D01*
X3873078Y-2816051D01*
X3897360Y-2806019D01*
X3915953Y-2787458D01*
X3926028Y-2763194D01*
X3926051Y-2736922D01*
X3916019Y-2712640D01*
X3905720Y-2702324D01*
X3905720Y-2416360D01*
X3990000Y-2416360D01*
X4023048Y-2409786D01*
X4051066Y-2391066D01*
X4069786Y-2363049D01*
X4076360Y-2330000D01*
X4076360Y-5469840D01*
X2006375Y-5469840D01*
X2006375Y-2422897D01*
X1993255Y-2391145D01*
X1968983Y-2366830D01*
X1937253Y-2353655D01*
X1902897Y-2353625D01*
X1871145Y-2366745D01*
X1846830Y-2391017D01*
X1833655Y-2422747D01*
X1833625Y-2457103D01*
X1839040Y-2470208D01*
X1839040Y-3438829D01*
X1826830Y-3451017D01*
X1813655Y-3482747D01*
X1813625Y-3517103D01*
X1826745Y-3548855D01*
X1839040Y-3561172D01*
X1839040Y-4938829D01*
X1836375Y-4941489D01*
X1836375Y-4722897D01*
X1823255Y-4691145D01*
X1810960Y-4678828D01*
X1810960Y-3303178D01*
X1819170Y-3294983D01*
X1832345Y-3263253D01*
X1832375Y-3228897D01*
X1819255Y-3197145D01*
X1810960Y-3188835D01*
X1810960Y-2331171D01*
X1823170Y-2318983D01*
X1836345Y-2287253D01*
X1836375Y-2252897D01*
X1823255Y-2221145D01*
X1798983Y-2196830D01*
X1767253Y-2183655D01*
X1732897Y-2183625D01*
X1701145Y-2196745D01*
X1676830Y-2221017D01*
X1663655Y-2252747D01*
X1663625Y-2287103D01*
X1676745Y-2318855D01*
X1689040Y-2331172D01*
X1689040Y-3180836D01*
X1672830Y-3197017D01*
X1660960Y-3225604D01*
X1660960Y-3041171D01*
X1673170Y-3028983D01*
X1686345Y-2997253D01*
X1686375Y-2962897D01*
X1673255Y-2931145D01*
X1660960Y-2918828D01*
X1660960Y-2161171D01*
X1673170Y-2148983D01*
X1686345Y-2117253D01*
X1686375Y-2082897D01*
X1673255Y-2051145D01*
X1648983Y-2026830D01*
X1617253Y-2013655D01*
X1582897Y-2013625D01*
X1551145Y-2026745D01*
X1526830Y-2051017D01*
X1513655Y-2082747D01*
X1513625Y-2117103D01*
X1526745Y-2148855D01*
X1539040Y-2161172D01*
X1539040Y-2918829D01*
X1526830Y-2931017D01*
X1513655Y-2962747D01*
X1513625Y-2997103D01*
X1526745Y-3028855D01*
X1539040Y-3041172D01*
X1539040Y-4428829D01*
X1526830Y-4441017D01*
X1513655Y-4472747D01*
X1513625Y-4507103D01*
X1526745Y-4538855D01*
X1551017Y-4563170D01*
X1582747Y-4576345D01*
X1617103Y-4576375D01*
X1648855Y-4563255D01*
X1673170Y-4538983D01*
X1686345Y-4507253D01*
X1686375Y-4472897D01*
X1673255Y-4441145D01*
X1660960Y-4428828D01*
X1660960Y-3266334D01*
X1672745Y-3294855D01*
X1689040Y-3311179D01*
X1689040Y-4678829D01*
X1676830Y-4691017D01*
X1663655Y-4722747D01*
X1663625Y-4757103D01*
X1676745Y-4788855D01*
X1701017Y-4813170D01*
X1732747Y-4826345D01*
X1767103Y-4826375D01*
X1798855Y-4813255D01*
X1823170Y-4788983D01*
X1836345Y-4757253D01*
X1836375Y-4722897D01*
X1836375Y-4941489D01*
X1826830Y-4951017D01*
X1813655Y-4982747D01*
X1813625Y-5017103D01*
X1826745Y-5048855D01*
X1851017Y-5073170D01*
X1882747Y-5086345D01*
X1917103Y-5086375D01*
X1948855Y-5073255D01*
X1973170Y-5048983D01*
X1986345Y-5017253D01*
X1986375Y-4982897D01*
X1973255Y-4951145D01*
X1960960Y-4938828D01*
X1960960Y-3561171D01*
X1973170Y-3548983D01*
X1986345Y-3517253D01*
X1986375Y-3482897D01*
X1973255Y-3451145D01*
X1960960Y-3438828D01*
X1960960Y-2516517D01*
X1968855Y-2513255D01*
X1993170Y-2488983D01*
X2006345Y-2457253D01*
X2006375Y-2422897D01*
X2006375Y-5469840D01*
X1126257Y-5469840D01*
X1126257Y-5090000D01*
X1126257Y-4910000D01*
X1126257Y-3590000D01*
X1126257Y-3410000D01*
X1126257Y-2090000D01*
X1126257Y-1910000D01*
X1125582Y-1906522D01*
X1125582Y-1721134D01*
X1125582Y-1467134D01*
X1106507Y-1420969D01*
X1071217Y-1385618D01*
X1025085Y-1366462D01*
X975134Y-1366418D01*
X928969Y-1385493D01*
X893617Y-1420783D01*
X874462Y-1466915D01*
X874418Y-1516866D01*
X893493Y-1563031D01*
X928783Y-1598382D01*
X974915Y-1617538D01*
X1024866Y-1617582D01*
X1071031Y-1598507D01*
X1106383Y-1563217D01*
X1125538Y-1517085D01*
X1125582Y-1467134D01*
X1125582Y-1721134D01*
X1106507Y-1674969D01*
X1071217Y-1639617D01*
X1025085Y-1620462D01*
X975134Y-1620418D01*
X928969Y-1639493D01*
X893617Y-1674783D01*
X874462Y-1720915D01*
X874418Y-1770866D01*
X893493Y-1817031D01*
X928783Y-1852382D01*
X974915Y-1871538D01*
X1024866Y-1871582D01*
X1071031Y-1852507D01*
X1106383Y-1817217D01*
X1125538Y-1771085D01*
X1125582Y-1721134D01*
X1125582Y-1906522D01*
X1123626Y-1896441D01*
X1115798Y-1884524D01*
X1103980Y-1876547D01*
X1090000Y-1873743D01*
X910000Y-1873743D01*
X896441Y-1876374D01*
X884524Y-1884202D01*
X876547Y-1896020D01*
X873743Y-1910000D01*
X873743Y-2090000D01*
X876374Y-2103559D01*
X884202Y-2115476D01*
X896020Y-2123453D01*
X910000Y-2126257D01*
X1090000Y-2126257D01*
X1103559Y-2123626D01*
X1115476Y-2115798D01*
X1123453Y-2103980D01*
X1126257Y-2090000D01*
X1126257Y-3410000D01*
X1125582Y-3406522D01*
X1125582Y-3221134D01*
X1125582Y-2967134D01*
X1106507Y-2920969D01*
X1071217Y-2885617D01*
X1025085Y-2866462D01*
X975134Y-2866418D01*
X928969Y-2885493D01*
X893617Y-2920783D01*
X874462Y-2966915D01*
X874418Y-3016866D01*
X893493Y-3063031D01*
X928783Y-3098382D01*
X974915Y-3117538D01*
X1024866Y-3117582D01*
X1071031Y-3098507D01*
X1106383Y-3063217D01*
X1125538Y-3017085D01*
X1125582Y-2967134D01*
X1125582Y-3221134D01*
X1106507Y-3174969D01*
X1071217Y-3139617D01*
X1025085Y-3120462D01*
X975134Y-3120418D01*
X928969Y-3139493D01*
X893617Y-3174783D01*
X874462Y-3220915D01*
X874418Y-3270866D01*
X893493Y-3317031D01*
X928783Y-3352382D01*
X974915Y-3371538D01*
X1024866Y-3371582D01*
X1071031Y-3352507D01*
X1106383Y-3317217D01*
X1125538Y-3271085D01*
X1125582Y-3221134D01*
X1125582Y-3406522D01*
X1123626Y-3396441D01*
X1115798Y-3384524D01*
X1103980Y-3376547D01*
X1090000Y-3373743D01*
X910000Y-3373743D01*
X896441Y-3376374D01*
X884524Y-3384202D01*
X876547Y-3396020D01*
X873743Y-3410000D01*
X873743Y-3590000D01*
X876374Y-3603559D01*
X884202Y-3615476D01*
X896020Y-3623453D01*
X910000Y-3626257D01*
X1090000Y-3626257D01*
X1103559Y-3623626D01*
X1115476Y-3615798D01*
X1123453Y-3603980D01*
X1126257Y-3590000D01*
X1126257Y-4910000D01*
X1125582Y-4906522D01*
X1125582Y-4721134D01*
X1125582Y-4467134D01*
X1106507Y-4420969D01*
X1071217Y-4385618D01*
X1025085Y-4366462D01*
X975134Y-4366418D01*
X928969Y-4385493D01*
X893617Y-4420783D01*
X874462Y-4466915D01*
X874418Y-4516866D01*
X893493Y-4563031D01*
X928783Y-4598383D01*
X974915Y-4617538D01*
X1024866Y-4617582D01*
X1071031Y-4598507D01*
X1106383Y-4563217D01*
X1125538Y-4517085D01*
X1125582Y-4467134D01*
X1125582Y-4721134D01*
X1106507Y-4674969D01*
X1071217Y-4639618D01*
X1025085Y-4620462D01*
X975134Y-4620418D01*
X928969Y-4639493D01*
X893617Y-4674783D01*
X874462Y-4720915D01*
X874418Y-4770866D01*
X893493Y-4817031D01*
X928783Y-4852383D01*
X974915Y-4871538D01*
X1024866Y-4871582D01*
X1071031Y-4852507D01*
X1106383Y-4817217D01*
X1125538Y-4771085D01*
X1125582Y-4721134D01*
X1125582Y-4906522D01*
X1123626Y-4896441D01*
X1115798Y-4884524D01*
X1103980Y-4876547D01*
X1090000Y-4873743D01*
X910000Y-4873743D01*
X896441Y-4876374D01*
X884524Y-4884202D01*
X876547Y-4896020D01*
X873743Y-4910000D01*
X873743Y-5090000D01*
X876374Y-5103559D01*
X884202Y-5115476D01*
X896020Y-5123453D01*
X910000Y-5126257D01*
X1090000Y-5126257D01*
X1103559Y-5123626D01*
X1115476Y-5115798D01*
X1123453Y-5103980D01*
X1126257Y-5090000D01*
X1126257Y-5469840D01*
X410160Y-5469840D01*
X410160Y-70160D01*
X6109802Y-70160D01*
M02*
